<?xml version="1.0" encoding="utf-8"?>
<!-- Generator: Adobe Illustrator 26.0.1, SVG Export Plug-In . SVG Version: 6.00 Build 0)  -->
<svg version="1.1" id="Layer_1" xmlns="http://www.w3.org/2000/svg" xmlns:xlink="http://www.w3.org/1999/xlink" x="0px" y="0px"
	 viewBox="0 0 94.71 64" style="enable-background:new 0 0 94.71 64;" xml:space="preserve">
<style type="text/css">
	.st0{fill:#E76FAA;}
	.st1{fill:none;stroke:#E66FAA;stroke-linecap:round;stroke-miterlimit:10;}
	.st2{fill:#E66FAA;}
	.st3{fill:#2B358F;}
</style>
<g id="XMLID_00000094600271165354849500000013108046714525562293_">
	<g>
		<path class="st0" d="M23.27,14.99c-0.29-0.4-0.6-0.79-0.94-1.15c0.81-1.83,1.76-3.58,2.89-5.19c0.73,1.3,1.2,2.7,1.47,4.17
			c-1.11,0.87-2.11,1.88-2.97,2.99L23.27,14.99z"/>
		<path class="st0" d="M22.33,13.84C17.71,8.74,9.3,7.25,4.32,13.15c-5.13,6.06-3.2,14.84,0.88,20.87
			C0.24,27.05-1.37,16.85,3.18,9.56c4.54-7.28,15.98-9.14,21.13-2.32c0.34,0.45,0.65,0.93,0.91,1.41
			C24.09,10.26,23.14,12.01,22.33,13.84z"/>
		<path class="st0" d="M86.92,51.52c2.2-0.59,4.38-1.28,6.54-2.04c-2.24,3.37-5.24,6.43-7.12,7.13
			C82.6,58.01,87.65,55.51,86.92,51.52z"/>
		<path class="st0" d="M45.73,2.68c6.94,5.28,5.63,16.57,2.45,24.96c-2.19,5.8-4.93,11.35-8.15,16.57
			c4.21-8.87,9.51-21.65,2.68-30.64c-4.3-5.65-11.13-4.59-16.02-0.75c-0.27-1.47-0.74-2.87-1.47-4.17c0.78-1.14,1.66-2.22,2.63-3.21
			C32.55,0.62,40.43-1.37,45.73,2.68z"/>
	</g>
	<g>
		<path class="st1" d="M86.92,51.52c-0.25-1.36-1.16-2.89-3.32-4.5c-1.79-1.33,5.81,2.19,10.61,1.31"/>
		<path class="st1" d="M86.92,51.52c2.2-0.59,4.38-1.28,6.54-2.04c-2.24,3.37-5.24,6.43-7.12,7.13
			C82.6,58.01,87.65,55.51,86.92,51.52z"/>
		<path class="st1" d="M24.33,63.5c3.91-3.67,7.52-7.71,10.77-12.05c1.75-2.33,3.39-4.75,4.93-7.24c3.22-5.22,5.96-10.77,8.15-16.57
			c3.18-8.39,4.49-19.68-2.45-24.96c-5.3-4.05-13.18-2.06-17.88,2.76C26.88,6.43,26,7.51,25.22,8.65c-1.13,1.61-2.08,3.36-2.89,5.19
			c-1.4,3.17-2.36,6.59-2.96,10.01c-0.51,2.88-0.25,6.19,2.16,6.14c1.42-0.03,2.34-1.56,2.93-2.92c1.92-4.4,3.08-9.64,2.23-14.25
			c-0.27-1.47-0.74-2.87-1.47-4.17c-0.26-0.48-0.57-0.96-0.91-1.41C19.16,0.42,7.72,2.28,3.18,9.56
			c-4.55,7.29-2.94,17.49,2.02,24.46v0.01C10.17,41,17.82,45.26,25.56,48.29c3.13,1.22,6.31,2.28,9.54,3.16
			c16.9,4.67,34.91,4.72,51.82,0.07"/>
		<path class="st1" d="M5.2,34.02c-4.08-6.03-6.01-14.81-0.88-20.87c4.98-5.9,13.39-4.41,18.01,0.69c0.34,0.36,0.65,0.75,0.94,1.15
			l0.45,0.82c0.86-1.11,1.86-2.12,2.97-2.99c4.89-3.84,11.72-4.9,16.02,0.75c6.83,8.99,1.53,21.77-2.68,30.64
			c-0.02,0.03-0.03,0.07-0.05,0.1"/>
	</g>
</g>
<path class="st1" d="M24.14,16.68l-0.49-0.21c-4.45,5.2-4.64,12.48-3.02,13.32C23.95,31.5,26.37,20.62,24.14,16.68z"/>
<g>
	<g>
		<path class="st2" d="M21.17,20.15c0.3-1.11,0.66-2.2,1.11-3.27c0.39-0.94,1.16-1.98,1.09-3.03c0.01,0.1-0.77,0.4-0.87,0.5
			c-0.4,0.45-0.72,0.94-0.96,1.49c-0.11,0.27-0.58,1.34-0.21,1.51c0.07,0.03,0.81-0.42,0.87-0.5c0.43-0.63,0.86-1.26,1.28-1.89
			c-0.29,0.17-0.58,0.33-0.87,0.5c-0.02,0.49-0.18,0.91-0.48,1.29c0.29-0.17,0.58-0.33,0.87-0.5c0.16-0.31,0.36-0.53,0.65-0.72
			c-0.28,0.16-0.57,0.33-0.85,0.49c-0.04,0.51-0.43,0.78-0.77,1.12c-0.38,0.37-0.6,0.81-0.69,1.33c0.01-0.05,0.38-0.21,0.44-0.25
			c0.1-0.06,0.38-0.15,0.43-0.25c0.32-0.63,0.7-1.22,1.12-1.79c-0.29,0.17-0.58,0.33-0.87,0.5c-0.19,0.33-0.39,0.65-0.61,0.96
			c0.29-0.17,0.58-0.33,0.87-0.5c-0.13-0.37-0.12-0.69,0.04-1.04c-0.29,0.17-0.58,0.33-0.87,0.5c-0.05,0.26-0.12,0.49-0.21,0.73
			c0.03-0.08,0.36-0.2,0.44-0.25c0.11-0.07,0.35-0.14,0.43-0.25c0.2-0.29,0.4-0.58,0.6-0.87c-0.29,0.17-0.58,0.33-0.87,0.5
			c0.01,0.21,0,0.37-0.04,0.58c0.01-0.06,0.38-0.21,0.44-0.25c0.11-0.06,0.36-0.15,0.43-0.25c0.28-0.46,0.59-0.98,1.02-1.32
			c-0.29,0.17-0.58,0.33-0.87,0.5c1.06-0.47,1.33,2.64,1.41,3.21c0.2,1.47,0.27,2.96,0.2,4.44c0.01-0.18,0.84-0.31,0.87-0.5
			c0.47-3.12,0.92-6.38-0.28-9.39c0.02,0.06-0.84,0.4-0.87,0.5c-0.29,1.02-0.26,2.06,0.1,3.06c-0.03-0.07,0.85-0.39,0.87-0.5
			c0.1-0.65,0.06-1.28-0.12-1.91c-0.29,0.17-0.58,0.33-0.87,0.5c0.3,0.98,0.46,1.97,0.48,2.99c0-0.16,0.84-0.32,0.87-0.5
			c0.18-1.51,0.36-3.02,0.54-4.53c-0.29,0.17-0.58,0.33-0.87,0.5c0.81,2.22,0.01,4.55-0.03,6.82c0.29-0.17,0.58-0.33,0.87-0.5
			c-0.2-2.44-0.55-4.85-1.04-7.25c0.02,0.1-0.89,0.39-0.87,0.5c0.49,2.39,0.84,4.81,1.04,7.25c-0.01-0.14,0.86-0.34,0.87-0.5
			c0.05-2.27,0.84-4.6,0.03-6.82c0.03,0.07-0.85,0.39-0.87,0.5c-0.18,1.51-0.36,3.02-0.54,4.53c0.29-0.17,0.58-0.33,0.87-0.5
			c-0.02-1.02-0.18-2.01-0.48-2.99c0.02,0.07-0.89,0.42-0.87,0.5c0.19,0.63,0.23,1.26,0.12,1.91c0.29-0.17,0.58-0.33,0.87-0.5
			c-0.36-1-0.4-2.04-0.1-3.06c-0.29,0.17-0.58,0.33-0.87,0.5c1.2,3.01,0.75,6.27,0.28,9.39c0.29-0.17,0.58-0.33,0.87-0.5
			c0.09-2.17-0.05-4.41-0.59-6.52c-0.09-0.37-0.24-0.86-0.57-1.09c-0.28-0.2-0.52,0-0.78,0.15c-0.23,0.13-0.48,0.25-0.67,0.42
			c-0.36,0.33-0.65,0.81-0.9,1.22c0.29-0.17,0.58-0.33,0.87-0.5c0.04-0.2,0.05-0.37,0.04-0.58c0.01,0.12-0.78,0.37-0.87,0.5
			c-0.2,0.29-0.4,0.58-0.6,0.87c0.29-0.17,0.58-0.33,0.87-0.5c0.1-0.24,0.17-0.48,0.21-0.73c-0.01,0.06-0.38,0.21-0.44,0.25
			c-0.09,0.05-0.38,0.15-0.43,0.25c-0.16,0.36-0.18,0.68-0.04,1.04c-0.02-0.04,0.81-0.41,0.87-0.5c0.21-0.31,0.42-0.63,0.61-0.96
			c-0.14,0.25-0.69,0.26-0.87,0.5c-0.43,0.56-0.8,1.16-1.12,1.79c0.29-0.17,0.58-0.33,0.87-0.5c0.09-0.52,0.31-0.96,0.69-1.33
			c0.33-0.33,0.73-0.61,0.77-1.12c-0.01,0.1-0.74,0.42-0.85,0.49c-0.3,0.19-0.52,0.42-0.68,0.74c0.04-0.08,0.35-0.2,0.44-0.25
			c0.12-0.07,0.34-0.14,0.43-0.25c0.3-0.38,0.46-0.8,0.48-1.29c-0.01,0.15-0.77,0.35-0.87,0.5c-0.43,0.63-0.86,1.26-1.28,1.89
			c0.29-0.17,0.58-0.33,0.87-0.5c-0.37-0.17,0.1-1.24,0.21-1.51c0.23-0.55,0.56-1.05,0.96-1.49c-0.29,0.17-0.58,0.33-0.87,0.5
			c0.07,1.05-0.7,2.1-1.09,3.03c-0.44,1.06-0.81,2.15-1.11,3.27c0.02-0.06,0.37-0.21,0.44-0.25C20.81,20.36,21.14,20.24,21.17,20.15
			L21.17,20.15z"/>
	</g>
</g>
<g>
	<g>
		<path class="st3" d="M46.77,46.34c0.08,0.02,0.17,0.05,0.25,0.07c0.09,0,0.14,0,0.16,0.01c0.06,0.01,0.08,0.05,0.07,0.1
			c-0.01,0.04-0.05,0.05-0.11,0.03c-0.01,0-0.03-0.01-0.04-0.01c-0.05,0.01-0.1,0.02-0.16,0.03c-0.05-0.03-0.1-0.06-0.16-0.1
			c-0.09,0.02-0.19,0.04-0.28,0.06c-0.03-0.03-0.06-0.05-0.09-0.08c-0.04-0.03-0.09-0.06-0.15-0.08c-0.02-0.01-0.07-0.01-0.12-0.02
			c-0.06,0-0.1-0.01-0.13-0.02c-0.01,0-0.01,0-0.02-0.01c-0.04-0.02-0.08-0.03-0.11-0.05c-0.07,0-0.15,0-0.22,0.01
			c-0.03-0.01-0.05-0.02-0.08-0.03c-0.02,0-0.03,0.01-0.05,0.01c-0.15-0.04-0.3-0.08-0.45-0.12c-0.04-0.02-0.07-0.03-0.11-0.05
			c-0.02,0.02-0.04,0.03-0.06,0.05c-0.05-0.03-0.1-0.06-0.14-0.09c-0.04,0-0.08,0.01-0.12,0.01c-0.04,0-0.11-0.01-0.2-0.04
			c-0.04-0.02-0.08-0.04-0.12-0.07c-0.07-0.02-0.13-0.03-0.19-0.04c-0.06,0-0.17-0.02-0.32-0.06c-0.04,0.02-0.07,0.03-0.11,0.05
			c-0.02-0.01-0.03-0.02-0.05-0.04c-0.03,0.02-0.05,0.05-0.07,0.11c-0.02,0.07-0.02,0.22,0.02,0.45c-0.05,0.06-0.09,0.11-0.14,0.17
			c0.02,0.03,0.04,0.05,0.06,0.08c-0.04,0.03-0.07,0.05-0.11,0.08c0.05,0.02,0.06,0.06,0.05,0.12c-0.03,0.05-0.07,0.1-0.1,0.16
			c-0.05,0.11-0.09,0.22-0.14,0.33c-0.01,0.05-0.02,0.09-0.02,0.14c0.11,0.05,0.23,0.11,0.34,0.16c0.1,0.01,0.19,0.02,0.29,0.03
			c0.02,0.02,0.05,0.05,0.07,0.07c0.02,0.02,0.09,0.05,0.22,0.09c0.07,0.02,0.12,0.02,0.17-0.01c0.07,0.01,0.13,0.01,0.2,0.02
			c0.07,0.05,0.14,0.09,0.21,0.14c0.17,0.02,0.26,0.03,0.29,0.04c0.04,0.01,0.1,0.02,0.17,0.02c0.04,0.02,0.07,0.05,0.11,0.07
			c0.06,0,0.11,0.01,0.17,0.01c0.02,0.02,0.05,0.05,0.07,0.07c0.15,0.04,0.24,0.06,0.27,0.06c0.03,0,0.05,0.01,0.08,0.01
			c0.02,0.01,0.05,0.02,0.09,0.03c0.04,0.02,0.06,0.03,0.08,0.03c0.04,0.01,0.08,0,0.12-0.03c0.09,0.01,0.17,0.03,0.26,0.04
			c0.03,0.02,0.06,0.04,0.1,0.05c0.03,0,0.05,0,0.07,0c0.03,0.02,0.07,0.04,0.1,0.06c0.02,0,0.04,0.01,0.05,0.01
			c-0.01,0.01-0.02,0.03-0.03,0.04c-0.08-0.02-0.18-0.01-0.31,0.03c-0.05-0.01-0.09-0.02-0.14-0.04c-0.04,0.01-0.07,0.02-0.11,0.03
			c-0.07-0.03-0.15-0.06-0.22-0.08c-0.07,0-0.14,0-0.21,0.01c-0.16-0.01-0.27-0.02-0.32-0.03c-0.05-0.03-0.1-0.06-0.15-0.09
			c-0.02,0.01-0.03,0.02-0.05,0.03c-0.1-0.04-0.2-0.08-0.29-0.12c-0.04,0.01-0.09,0.01-0.13,0.02c-0.06-0.02-0.12-0.05-0.18-0.07
			c-0.05,0-0.1-0.01-0.15-0.01c-0.1-0.01-0.18-0.02-0.24-0.04c-0.02-0.01-0.05-0.01-0.07-0.02c-0.04-0.01-0.1-0.01-0.18,0
			c-0.03-0.03-0.06-0.07-0.09-0.1c-0.02-0.01-0.03-0.02-0.05-0.02c-0.04-0.01-0.14-0.01-0.31,0c-0.06-0.03-0.12-0.06-0.18-0.09
			c-0.03,0-0.06,0-0.09,0c-0.04-0.02-0.09-0.05-0.13-0.07c-0.04-0.01-0.14,0.14-0.28,0.45c-0.03,0.09-0.07,0.18-0.11,0.25
			c0.02,0.08,0.02,0.13-0.01,0.15c-0.07,0.08-0.13,0.16-0.2,0.23c0.01,0.04,0.02,0.08,0.02,0.12c-0.04,0.03-0.07,0.06-0.11,0.09
			c-0.01,0.05-0.01,0.1-0.02,0.15c-0.02,0.02-0.04,0.04-0.06,0.05c0,0.01,0,0.04-0.01,0.07c-0.02,0.07-0.09,0.18-0.2,0.34
			c-0.11,0.15-0.22,0.31-0.32,0.47c-0.03-0.03-0.07-0.06-0.1-0.09c-0.02-0.01-0.05-0.02-0.07-0.02c0.02-0.03,0.04-0.06,0.05-0.09
			c0.01-0.03,0.02-0.05,0.03-0.08c0.02-0.01,0.04-0.02,0.06-0.02c0.02-0.03,0.03-0.07,0.05-0.1c0.01-0.03,0.06-0.09,0.14-0.16
			c-0.02-0.02-0.04-0.05-0.06-0.07c0.01-0.03,0.02-0.06,0.03-0.09c-0.01-0.02-0.02-0.04-0.04-0.06c0.04-0.03,0.08-0.07,0.12-0.1
			c-0.03-0.02-0.05-0.04-0.08-0.06c0.03-0.05,0.07-0.09,0.11-0.13c0.04-0.04,0.06-0.07,0.07-0.08c0-0.01,0-0.01,0.01-0.02
			c-0.01-0.02-0.02-0.04-0.03-0.05c0.01-0.02,0.02-0.04,0.03-0.06c0-0.05,0.01-0.09,0.01-0.14c0.04-0.04,0.07-0.08,0.11-0.12
			c0.03-0.11,0.06-0.23,0.08-0.34c0.06-0.1,0.12-0.21,0.19-0.31c0-0.05,0-0.1,0-0.15c0.02-0.05,0.03-0.1,0.05-0.15
			c0.01-0.04,0-0.08-0.04-0.12c-0.1,0-0.2,0-0.3,0c-0.06-0.05-0.11-0.11-0.17-0.16c-0.07-0.01-0.13-0.03-0.2-0.04
			c-0.01,0-0.03,0-0.06-0.01c-0.05-0.02-0.06-0.06-0.03-0.14c0.03-0.07,0.06-0.12,0.11-0.14c0.04-0.02,0.11-0.02,0.21,0.02
			c0.09,0.03,0.16,0.06,0.23,0.09c0.09,0.04,0.19,0.08,0.29,0.12c0.02,0.01,0.04,0.02,0.07,0.02c0.08,0.03,0.15,0,0.21-0.09
			c0-0.04-0.01-0.09-0.01-0.13c0.04-0.13,0.09-0.27,0.13-0.4c-0.01-0.01-0.03-0.02-0.04-0.02c0.06-0.15,0.13-0.3,0.19-0.45
			c-0.01-0.1-0.02-0.19-0.02-0.29c0.02-0.06,0.03-0.12,0.05-0.17c-0.08-0.07-0.15-0.13-0.23-0.2c-0.09,0.02-0.18,0.03-0.26,0.05
			c-0.02-0.05-0.03-0.09-0.05-0.14c-0.05-0.03-0.08-0.07-0.08-0.11c0.04-0.02,0.08-0.09,0.12-0.2c0.1,0.03,0.18,0.04,0.27,0.02
			c0.08-0.02,0.14-0.02,0.19-0.01c0.09,0.04,0.17,0.08,0.26,0.11c0.02,0.01,0.08,0.02,0.18,0.05c0.16,0.04,0.32,0.09,0.48,0.13
			c0.1,0.05,0.21,0.1,0.31,0.14c0.11,0.03,0.22,0.06,0.33,0.09c0.03,0,0.06-0.01,0.09-0.01c0.03-0.01,0.05-0.01,0.05-0.01
			c0.01,0,0.02,0.01,0.05,0.03c0.03,0.02,0.04,0.03,0.04,0.03c0.01,0,0.01,0,0.02,0.01c0.02,0.01,0.14,0.03,0.38,0.06
			c0,0.02,0,0.04-0.01,0.05c0.03-0.02,0.06-0.03,0.08-0.02c0.03,0.01,0.06,0.04,0.09,0.1c0.02,0,0.05,0,0.07-0.01
			c0.09,0.02,0.17,0.03,0.26,0.05c0.01,0,0.01,0,0.02,0.01c0.18,0.08,0.36,0.15,0.55,0.23c0.1,0,0.19,0.02,0.28,0.04
			C46.71,46.29,46.74,46.31,46.77,46.34z"/>
		<path class="st3" d="M50.41,49.73c-0.04,0.06-0.07,0.12-0.11,0.17c0.01,0.03,0.02,0.06,0.03,0.09c-0.03,0.07-0.05,0.13-0.08,0.2
			c-0.01,0.03-0.04,0.07-0.1,0.12c-0.01,0.03-0.01,0.07-0.02,0.1c-0.04,0.05-0.07,0.11-0.11,0.16c-0.03,0.02-0.05,0.04-0.08,0.07
			c-0.02,0.02-0.07,0.08-0.15,0.2c-0.03,0-0.05,0.01-0.08,0.01c-0.02,0.04-0.04,0.07-0.06,0.11c-0.04,0.01-0.08,0.03-0.12,0.04
			c-0.04,0.05-0.08,0.09-0.12,0.14c-0.06,0.01-0.11,0.02-0.17,0.03c-0.01,0.04-0.03,0.08-0.04,0.11c-0.05,0.01-0.1,0.01-0.14,0.02
			c-0.08,0.06-0.13,0.09-0.15,0.11c-0.02,0.02-0.07,0.03-0.15,0.03c-0.08,0-0.13,0.01-0.16,0.02c-0.04,0.09-0.15,0.12-0.33,0.09
			c-0.05,0.03-0.11,0.04-0.16,0.03c-0.02,0-0.04-0.02-0.08-0.03c-0.11,0.05-0.21,0.07-0.3,0.07c-0.04,0.03-0.07,0.06-0.11,0.09
			c-0.04-0.03-0.08-0.07-0.12-0.1c-0.01,0.01-0.03,0.03-0.04,0.04c-0.05-0.03-0.09-0.06-0.14-0.09c-0.12-0.04-0.24-0.08-0.36-0.12
			c-0.04-0.12-0.1-0.24-0.19-0.38c0.02-0.04,0.05-0.07,0.07-0.11c-0.02-0.12-0.05-0.23-0.07-0.35c0.03-0.03,0.06-0.06,0.09-0.09
			c0-0.08,0-0.17,0-0.25c0.03-0.04,0.06-0.08,0.09-0.12c0-0.01,0.01-0.05,0.01-0.12c0.01-0.06,0.01-0.1,0.01-0.12
			c0.02-0.06,0.06-0.1,0.14-0.12c0-0.02,0.01-0.03,0.01-0.05c0.02-0.07,0.05-0.13,0.11-0.18c0.02,0.01,0.04,0.01,0.06,0.02
			c0.06-0.04,0.1-0.08,0.12-0.15c-0.01-0.02-0.01-0.04-0.01-0.07c0.02-0.04,0.04-0.08,0.06-0.13c0.01-0.03,0.01-0.06,0.02-0.09
			c0.07-0.05,0.12-0.1,0.14-0.17c0-0.05,0-0.1,0-0.15c0.01-0.04,0.03-0.07,0.05-0.1c0.11-0.02,0.17-0.05,0.18-0.09
			c0.01-0.03,0-0.06-0.02-0.1c0.04-0.04,0.09-0.08,0.13-0.13c0.02-0.02,0.04-0.03,0.07-0.04c0.03-0.01,0.05-0.01,0.06-0.02
			c0-0.03,0-0.06,0-0.09c0.11,0.02,0.17-0.02,0.19-0.1c0.01-0.05,0.01-0.11,0.01-0.16c0.22,0.05,0.39-0.02,0.51-0.2
			c0.02,0,0.04,0.01,0.06,0.01c0.05-0.03,0.09-0.04,0.11-0.04c0.01,0,0.03,0.02,0.08,0.04c0.05,0.03,0.12,0.05,0.23,0.07
			c0.06-0.01,0.11-0.02,0.17-0.03c0,0.02-0.01,0.04-0.01,0.06c0.07,0.02,0.14,0.07,0.23,0.15c0.05,0.01,0.09,0.02,0.14,0.03
			c0.02,0.06,0.04,0.1,0.07,0.11c0.01,0,0.01,0,0.02,0c0.05,0.12,0.12,0.21,0.18,0.27c0.01,0.04,0.02,0.08,0.03,0.12
			c0.03,0.02,0.06,0.04,0.09,0.05c0.04,0.08,0.08,0.16,0.12,0.23c0.03,0.15,0.06,0.29,0.08,0.44c-0.01,0.03-0.01,0.05-0.02,0.08
			C50.39,49.51,50.4,49.62,50.41,49.73z M50.04,49.92c0.05-0.04,0.08-0.07,0.08-0.1c0-0.02,0-0.04-0.02-0.07
			c-0.02-0.03-0.03-0.04-0.03-0.05c0.02,0,0.04,0.01,0.06,0.01c0-0.04-0.02-0.07-0.05-0.1c0.01-0.01,0.02-0.01,0.03-0.02
			c-0.01-0.05-0.03-0.1-0.04-0.16c0.02-0.06,0.04-0.13,0.06-0.19c-0.02-0.05-0.04-0.1-0.07-0.16c-0.06-0.05-0.09-0.09-0.09-0.11
			c0-0.01,0-0.02,0-0.03c0-0.02,0-0.04-0.03-0.05c-0.02-0.01-0.03-0.03-0.03-0.04c0,0,0-0.01,0-0.01c0-0.01,0.02-0.04,0.07-0.1
			c-0.02-0.02-0.04-0.04-0.05-0.06c-0.03-0.01-0.06-0.02-0.1-0.03c-0.01-0.02-0.02-0.05-0.03-0.07c0.02-0.01,0.03-0.03,0.05-0.04
			c-0.04-0.03-0.08-0.06-0.12-0.09c-0.03-0.03-0.05-0.07-0.08-0.1c-0.09-0.05-0.17-0.11-0.26-0.16c-0.04-0.02-0.07-0.03-0.11-0.05
			c-0.19-0.04-0.3-0.02-0.31,0.08c-0.02,0.1-0.03,0.2-0.05,0.29c-0.07-0.01-0.14-0.02-0.2-0.04c-0.12,0.03-0.23,0.06-0.35,0.1
			c-0.02,0.03-0.03,0.06-0.05,0.09c-0.04,0.01-0.09,0.03-0.13,0.04c-0.04,0.08-0.07,0.16-0.11,0.24c-0.04,0.01-0.08,0.02-0.11,0.04
			c-0.02,0-0.04,0.04-0.06,0.12c-0.02,0.07-0.02,0.12-0.02,0.16c-0.05,0.01-0.09,0.02-0.14,0.03c-0.03,0.01-0.06,0.06-0.08,0.16
			c-0.01,0.05-0.05,0.08-0.13,0.11c-0.01,0.03-0.01,0.06-0.02,0.09c-0.04,0.03-0.08,0.07-0.12,0.1c-0.01,0.03-0.01,0.05-0.02,0.08
			c-0.01,0.02-0.03,0.03-0.04,0.05c0,0.04-0.01,0.08-0.01,0.13c-0.07,0.08-0.14,0.17-0.2,0.25c0.01,0.04,0.01,0.07,0.02,0.11
			c-0.02,0.07-0.03,0.14-0.05,0.2c-0.03,0.04-0.05,0.09-0.08,0.13c-0.01,0.07-0.03,0.14-0.04,0.21c0.04,0.07,0.07,0.14,0.11,0.2
			c0.01,0.03,0.06,0.07,0.16,0.14c0.01,0.02,0.01,0.03,0.02,0.05c0.03,0,0.05,0,0.08,0c0.02,0.01,0.04,0.02,0.06,0.03
			c0.04,0,0.09-0.01,0.13-0.01c0.08,0.02,0.17,0.05,0.25,0.07c0.04,0,0.08,0,0.12,0c0.01-0.02,0.03-0.04,0.04-0.05
			c0.04,0.01,0.07,0.02,0.11,0.03c0.11,0.03,0.17,0.01,0.19-0.05c0.05,0.02,0.09,0.05,0.14,0.07c0.02-0.02,0.03-0.04,0.05-0.06
			c0.03,0,0.07,0.01,0.1,0.01c0.02-0.03,0.05-0.06,0.07-0.09c0.09-0.03,0.14-0.06,0.15-0.09c0.06,0.01,0.11,0.02,0.17,0.04
			c0.02-0.03,0.05-0.05,0.07-0.08c0.07-0.03,0.14-0.06,0.21-0.1c0.03-0.02,0.06-0.05,0.08-0.07c0.03-0.03,0.07-0.04,0.11-0.05
			c0.05-0.01,0.11-0.02,0.16-0.03c0.03-0.08,0.08-0.15,0.14-0.23c0-0.03,0-0.05,0-0.08c0.05-0.01,0.11-0.02,0.16-0.03
			c0-0.02-0.01-0.03-0.01-0.05c0.05-0.04,0.1-0.07,0.14-0.1c-0.02,0-0.03-0.01-0.05-0.01c0.03-0.03,0.05-0.05,0.06-0.07
			c0-0.02,0-0.04,0-0.07c0-0.03-0.01-0.05,0-0.05c0.01-0.04,0.03-0.08,0.05-0.12c0.03-0.04,0.04-0.06,0.05-0.08
			C50.07,49.95,50.06,49.93,50.04,49.92z"/>
		<path class="st3" d="M53.58,51.3c0.04,0.03,0.06,0.06,0.06,0.09c-0.01,0.07-0.04,0.11-0.08,0.11c-0.1,0.1-0.19,0.15-0.28,0.14
			c0,0.03-0.13,0.11-0.39,0.25c-0.07,0-0.12,0.01-0.14,0.03c-0.02,0.01-0.08,0.04-0.16,0.09c-0.1-0.01-0.17,0.01-0.21,0.08
			c-0.04,0-0.07,0.01-0.11,0.01c-0.01-0.01-0.03-0.02-0.04-0.02c-0.01,0.02-0.03,0.05-0.04,0.07c-0.01,0-0.02,0-0.03,0
			c-0.05-0.01-0.13,0-0.23,0.02c-0.1,0.02-0.17,0.03-0.19,0.03c-0.04,0.01-0.08,0.01-0.11,0.02c-0.02,0-0.05-0.01-0.07-0.01
			c-0.02-0.03-0.03-0.06-0.05-0.09c-0.03-0.03-0.06-0.06-0.09-0.09c-0.03-0.1-0.07-0.18-0.12-0.26c0-0.07,0-0.14,0.01-0.22
			c0.01-0.03,0.02-0.07,0.03-0.1c-0.01-0.02-0.03-0.04-0.04-0.06c0.02-0.08,0.04-0.17,0.06-0.25c0.01-0.07,0.02-0.15,0.03-0.22
			c0.01-0.04,0.02-0.07,0.03-0.11c0.03-0.02,0.04-0.04,0.04-0.06c0.01-0.04-0.01-0.1-0.04-0.17c0.07-0.24,0.11-0.37,0.11-0.4
			c0.01-0.05-0.01-0.11-0.05-0.17c0.03-0.01,0.06-0.01,0.09-0.02c0.03-0.11,0.06-0.22,0.09-0.33c0-0.05,0-0.1,0-0.15
			c0.03-0.05,0.07-0.1,0.1-0.15c-0.01-0.06-0.02-0.12-0.02-0.19c0.07-0.05,0.11-0.13,0.12-0.22c0.02-0.1,0.03-0.2,0.05-0.29
			c0.01-0.02,0.03-0.04,0.04-0.06c0.02-0.14,0.04-0.29,0.06-0.43c0.03-0.14,0.07-0.28,0.1-0.42c-0.03-0.11-0.02-0.22,0.01-0.34
			c0.02-0.09,0.05-0.18,0.07-0.26c0-0.03-0.01-0.07-0.01-0.1c0.04-0.13,0.08-0.26,0.12-0.39c0.04-0.01,0.08-0.01,0.12-0.02
			c0.04-0.01,0.07-0.02,0.08-0.01c0.01,0,0.02,0.01,0.04,0.02c0.01,0.05,0.02,0.1,0.02,0.15c0.03,0.03,0.06,0.06,0.09,0.09
			c-0.03,0.03-0.06,0.05-0.09,0.08c0,0.01,0,0.02-0.01,0.03c-0.01,0.03,0,0.07,0.02,0.11c-0.02,0.1-0.05,0.14-0.1,0.14
			c0.01,0.02,0.01,0.03,0.02,0.05c-0.02,0.18-0.02,0.31-0.01,0.38c-0.04,0.07-0.08,0.15-0.12,0.22c0.02,0.03,0.03,0.06,0.05,0.09
			c-0.09,0.1-0.15,0.21-0.17,0.32c-0.01,0.06,0.01,0.1,0.07,0.12c-0.03,0.05-0.06,0.11-0.1,0.16c0.02,0.06,0.02,0.1,0.02,0.11
			c0,0.03-0.02,0.07-0.06,0.11c0,0.04,0,0.07,0,0.11c-0.03,0.09-0.06,0.19-0.1,0.28c-0.01,0.04-0.02,0.09-0.03,0.13
			c-0.01,0.04-0.05,0.13-0.13,0.27c0.01,0.06,0.01,0.13,0.02,0.19c-0.03,0.11-0.06,0.22-0.09,0.33c-0.02,0.01-0.04,0.02-0.06,0.03
			c0.02,0.04,0.03,0.08,0.05,0.12c-0.02,0.05-0.05,0.11-0.07,0.16c-0.03,0.09-0.06,0.17-0.09,0.26c0.01,0.02,0.02,0.05,0.03,0.07
			c-0.02,0.01-0.03,0.01-0.05,0.02c0.04,0.05,0.05,0.13,0.03,0.22c0,0.02-0.02,0.05-0.06,0.1c0.01,0.04,0.02,0.07,0.03,0.11
			c-0.02,0.04-0.03,0.09-0.05,0.13c0.01,0.03,0.02,0.07,0.03,0.1c-0.01,0.02-0.02,0.05-0.03,0.07c0.02,0.1,0.04,0.21,0.06,0.31
			c0.04,0.02,0.08,0.04,0.12,0.06c0.13-0.03,0.22-0.04,0.26-0.04c0.02,0.01,0.04,0.01,0.06,0.02c0.05-0.03,0.11-0.05,0.16-0.08
			c0.02-0.01,0.06-0.02,0.14-0.03c0.04-0.05,0.11-0.07,0.19-0.06c0.02-0.01,0.04-0.03,0.06-0.04c0.03,0.01,0.05,0.01,0.08,0.02
			c0.01-0.01,0.02-0.03,0.03-0.04c0.04,0,0.07-0.01,0.11-0.01c0.04-0.02,0.07-0.03,0.11-0.05c0.04,0,0.07-0.01,0.11-0.01
			c0.01,0,0.04-0.02,0.11-0.06c0.07-0.04,0.13-0.07,0.18-0.09c0-0.03,0.03-0.04,0.08-0.06c0.01,0.01,0.02,0.02,0.04,0.02
			C53.49,51.34,53.53,51.33,53.58,51.3z"/>
		<path class="st3" d="M56.78,51.65c0.04,0.03,0.06,0.06,0.06,0.09c-0.01,0.07-0.03,0.11-0.08,0.12c-0.09,0.11-0.18,0.16-0.27,0.15
			c0,0.03-0.13,0.12-0.37,0.27c-0.07,0.01-0.12,0.02-0.14,0.04c-0.02,0.02-0.08,0.05-0.15,0.1c-0.1-0.01-0.17,0.02-0.2,0.09
			c-0.04,0.01-0.07,0.01-0.11,0.02c-0.01-0.01-0.03-0.01-0.04-0.02c-0.01,0.02-0.03,0.05-0.04,0.07c-0.01,0-0.02,0-0.03,0
			c-0.05,0-0.13,0-0.23,0.03c-0.1,0.02-0.16,0.04-0.19,0.04c-0.04,0.01-0.08,0.02-0.11,0.02c-0.02,0-0.05-0.01-0.07-0.01
			c-0.02-0.03-0.04-0.06-0.05-0.09c-0.03-0.03-0.06-0.05-0.09-0.08c-0.03-0.09-0.08-0.18-0.13-0.25c0-0.07,0-0.15-0.01-0.22
			c0.01-0.03,0.02-0.07,0.02-0.1c-0.01-0.02-0.03-0.04-0.04-0.06c0.01-0.09,0.03-0.17,0.04-0.26c0.01-0.07,0.01-0.15,0.02-0.22
			c0.01-0.04,0.02-0.07,0.02-0.11c0.02-0.02,0.04-0.05,0.04-0.07c0.01-0.04-0.01-0.1-0.05-0.17c0.06-0.24,0.09-0.38,0.09-0.4
			c0.01-0.05-0.01-0.11-0.06-0.17c0.03-0.01,0.06-0.02,0.08-0.03c0.02-0.11,0.05-0.22,0.07-0.34c0-0.05,0-0.1,0-0.15
			c0.03-0.05,0.06-0.1,0.09-0.15c-0.01-0.06-0.02-0.12-0.03-0.19c0.06-0.06,0.1-0.13,0.11-0.22c0.01-0.1,0.02-0.2,0.03-0.3
			c0.01-0.02,0.03-0.04,0.04-0.07c0.01-0.15,0.03-0.29,0.04-0.44c0.03-0.14,0.05-0.29,0.08-0.43c-0.03-0.11-0.04-0.22-0.01-0.34
			c0.02-0.09,0.04-0.18,0.06-0.27c-0.01-0.03-0.01-0.07-0.02-0.1c0.03-0.13,0.06-0.27,0.09-0.4c0.04-0.01,0.08-0.02,0.12-0.03
			c0.04-0.01,0.07-0.02,0.08-0.02c0.01,0,0.02,0.01,0.04,0.02c0.01,0.05,0.02,0.1,0.03,0.15c0.03,0.03,0.06,0.06,0.09,0.09
			c-0.03,0.03-0.05,0.06-0.08,0.08c0,0.01,0,0.02,0,0.03c0,0.04,0,0.07,0.02,0.11c-0.02,0.1-0.05,0.14-0.09,0.14
			c0.01,0.02,0.02,0.03,0.02,0.05c-0.01,0.18-0.01,0.31,0.01,0.38c-0.04,0.07-0.07,0.15-0.11,0.22c0.02,0.03,0.04,0.06,0.05,0.08
			c-0.09,0.11-0.14,0.22-0.15,0.33c-0.01,0.06,0.02,0.1,0.08,0.12c-0.03,0.05-0.06,0.11-0.09,0.16c0.02,0.06,0.03,0.1,0.03,0.11
			c0,0.03-0.02,0.07-0.05,0.11c0,0.04,0,0.07,0.01,0.11c-0.03,0.09-0.05,0.19-0.08,0.28c-0.01,0.04-0.01,0.09-0.02,0.13
			c-0.01,0.04-0.05,0.13-0.12,0.27c0.01,0.06,0.02,0.13,0.03,0.19c-0.02,0.11-0.05,0.22-0.07,0.34c-0.02,0.01-0.04,0.02-0.06,0.03
			c0.02,0.04,0.04,0.08,0.05,0.12c-0.02,0.06-0.04,0.11-0.06,0.17c-0.02,0.09-0.05,0.17-0.07,0.26c0.01,0.02,0.02,0.05,0.03,0.07
			c-0.01,0.01-0.03,0.01-0.04,0.02c0.04,0.05,0.05,0.13,0.04,0.22c0,0.02-0.02,0.05-0.06,0.1c0.01,0.03,0.02,0.07,0.04,0.1
			c-0.01,0.04-0.03,0.09-0.04,0.13c0.01,0.03,0.02,0.07,0.03,0.1c-0.01,0.02-0.02,0.05-0.03,0.07c0.03,0.1,0.05,0.2,0.08,0.31
			c0.04,0.02,0.08,0.04,0.13,0.06c0.13-0.04,0.21-0.06,0.25-0.05c0.02,0.01,0.04,0.01,0.06,0.02c0.05-0.03,0.1-0.06,0.16-0.09
			c0.02-0.01,0.06-0.03,0.13-0.04c0.04-0.05,0.1-0.07,0.19-0.07c0.02-0.01,0.04-0.03,0.06-0.04c0.03,0.01,0.05,0.01,0.08,0.02
			c0.01-0.01,0.02-0.03,0.02-0.04c0.04-0.01,0.07-0.01,0.11-0.02c0.03-0.02,0.07-0.03,0.1-0.05c0.04-0.01,0.07-0.01,0.11-0.02
			c0.01,0,0.04-0.03,0.11-0.07c0.06-0.05,0.12-0.08,0.17-0.1c0-0.03,0.03-0.04,0.07-0.06c0.01,0.01,0.02,0.02,0.04,0.02
			C56.69,51.69,56.73,51.67,56.78,51.65z"/>
		<path class="st3" d="M60.91,50.8c-0.02,0.06-0.05,0.13-0.07,0.19c0.01,0.03,0.03,0.05,0.04,0.08c-0.01,0.07-0.03,0.14-0.04,0.21
			c0,0.03-0.03,0.07-0.08,0.14c0,0.04,0,0.07,0,0.11c-0.03,0.06-0.05,0.12-0.08,0.18c-0.02,0.03-0.04,0.05-0.06,0.08
			c-0.02,0.02-0.06,0.1-0.11,0.23c-0.03,0.01-0.05,0.02-0.08,0.03c-0.01,0.04-0.03,0.08-0.04,0.12c-0.04,0.02-0.08,0.04-0.12,0.06
			c-0.03,0.05-0.06,0.11-0.09,0.16c-0.05,0.02-0.11,0.04-0.16,0.06C60.01,52.47,60,52.5,60,52.54c-0.05,0.01-0.09,0.03-0.14,0.04
			c-0.07,0.07-0.11,0.12-0.13,0.13c-0.02,0.02-0.07,0.04-0.14,0.06c-0.08,0.02-0.13,0.03-0.15,0.05c-0.02,0.09-0.12,0.14-0.31,0.15
			c-0.04,0.04-0.1,0.06-0.16,0.06c-0.02,0-0.05-0.01-0.08-0.02c-0.1,0.07-0.2,0.11-0.28,0.12c-0.03,0.03-0.06,0.07-0.09,0.1
			c-0.05-0.03-0.09-0.05-0.14-0.08c-0.01,0.02-0.02,0.03-0.04,0.05c-0.05-0.02-0.1-0.04-0.15-0.06c-0.13-0.02-0.25-0.03-0.38-0.05
			c-0.06-0.11-0.14-0.22-0.26-0.34c0.02-0.04,0.03-0.08,0.05-0.12c-0.04-0.11-0.09-0.22-0.13-0.33c0.02-0.03,0.05-0.07,0.07-0.1
			c-0.02-0.08-0.03-0.17-0.04-0.25c0.02-0.05,0.05-0.09,0.07-0.14c0-0.01,0-0.05-0.01-0.12c-0.01-0.06-0.01-0.1-0.01-0.12
			c0-0.06,0.04-0.11,0.12-0.14c0-0.02,0-0.03,0-0.05c0-0.07,0.03-0.13,0.07-0.19c0.02,0,0.04,0,0.06,0c0.05-0.05,0.08-0.1,0.09-0.17
			c-0.01-0.02-0.02-0.04-0.03-0.06c0.01-0.04,0.03-0.09,0.04-0.13c0-0.03,0-0.06,0.01-0.09c0.06-0.06,0.1-0.12,0.1-0.19
			c-0.01-0.05-0.01-0.1-0.02-0.15c0-0.04,0.02-0.08,0.04-0.1c0.11-0.04,0.16-0.08,0.16-0.13c0-0.03-0.01-0.06-0.03-0.1
			c0.04-0.05,0.07-0.1,0.11-0.15c0.01-0.02,0.04-0.04,0.07-0.05c0.03-0.01,0.05-0.02,0.05-0.03c0-0.03-0.01-0.06-0.01-0.09
			c0.11,0,0.16-0.05,0.17-0.14c0-0.05,0-0.11-0.02-0.16c0.22,0.01,0.38-0.08,0.46-0.29c0.02,0,0.04,0,0.06,0
			c0.05-0.04,0.08-0.06,0.1-0.06c0.01,0,0.04,0.01,0.09,0.03c0.05,0.02,0.13,0.03,0.24,0.03c0.05-0.02,0.11-0.04,0.16-0.06
			c0,0.02,0,0.04,0,0.06c0.07,0.01,0.15,0.05,0.25,0.11c0.05,0,0.09,0,0.14,0c0.03,0.06,0.06,0.09,0.09,0.09
			c0.01,0,0.01-0.01,0.02-0.01c0.07,0.11,0.15,0.18,0.23,0.23c0.02,0.04,0.03,0.07,0.05,0.11c0.03,0.01,0.06,0.02,0.09,0.04
			c0.05,0.07,0.1,0.14,0.16,0.21c0.05,0.14,0.11,0.28,0.16,0.42c0,0.03,0,0.06,0,0.08C60.85,50.58,60.88,50.69,60.91,50.8z
			 M60.58,51.05c0.04-0.04,0.06-0.08,0.06-0.11c0-0.02-0.01-0.04-0.03-0.06c-0.02-0.02-0.04-0.04-0.03-0.04c0.02,0,0.04,0,0.06,0
			c-0.01-0.04-0.03-0.07-0.07-0.09c0.01-0.01,0.01-0.02,0.02-0.03c-0.02-0.05-0.05-0.1-0.07-0.15c0.01-0.07,0.02-0.13,0.02-0.2
			c-0.03-0.05-0.06-0.1-0.09-0.14c-0.07-0.04-0.11-0.07-0.11-0.1c0-0.01,0-0.02,0-0.03c0-0.02-0.01-0.04-0.04-0.05
			c-0.02-0.01-0.04-0.02-0.04-0.04c0,0,0-0.01,0-0.01c0-0.01,0.02-0.05,0.05-0.11c-0.02-0.02-0.04-0.03-0.06-0.05
			c-0.03,0-0.07-0.01-0.1-0.01c-0.01-0.02-0.03-0.04-0.04-0.07c0.01-0.02,0.03-0.03,0.04-0.05c-0.04-0.02-0.09-0.04-0.13-0.06
			c-0.03-0.03-0.06-0.06-0.1-0.09c-0.09-0.04-0.19-0.08-0.28-0.11c-0.04-0.01-0.08-0.02-0.12-0.03c-0.19-0.01-0.29,0.04-0.29,0.13
			c0,0.1,0,0.2,0,0.3c-0.07,0-0.14,0-0.21,0c-0.11,0.05-0.22,0.1-0.33,0.15c-0.01,0.03-0.02,0.06-0.03,0.1
			c-0.04,0.02-0.08,0.04-0.12,0.06c-0.02,0.09-0.04,0.17-0.06,0.26c-0.03,0.02-0.07,0.04-0.1,0.06c-0.02,0.01-0.03,0.05-0.04,0.13
			c0,0.07,0,0.12,0.01,0.16c-0.04,0.02-0.09,0.04-0.13,0.05c-0.03,0.01-0.04,0.07-0.05,0.17c0,0.05-0.04,0.09-0.11,0.13
			c0,0.03,0,0.06-0.01,0.09c-0.03,0.04-0.07,0.08-0.1,0.12c0,0.03,0,0.05-0.01,0.08c-0.01,0.02-0.02,0.04-0.03,0.05
			c0,0.04,0.01,0.08,0.01,0.12c-0.05,0.09-0.1,0.19-0.16,0.28c0.01,0.03,0.03,0.07,0.04,0.1c0,0.07-0.01,0.14-0.01,0.21
			c-0.02,0.05-0.04,0.1-0.06,0.15c0,0.07,0,0.15,0,0.22c0.05,0.06,0.1,0.12,0.15,0.18c0.02,0.02,0.08,0.06,0.18,0.11
			c0.01,0.02,0.02,0.03,0.03,0.05c0.02,0,0.05-0.01,0.07-0.01c0.02,0.01,0.04,0.01,0.07,0.02c0.04-0.01,0.09-0.02,0.13-0.04
			c0.09,0.01,0.17,0.02,0.26,0.02c0.04-0.01,0.08-0.01,0.12-0.02c0.01-0.02,0.02-0.04,0.03-0.06c0.04,0,0.07,0.01,0.11,0.01
			c0.11,0.01,0.17-0.02,0.17-0.09c0.05,0.01,0.1,0.03,0.15,0.04c0.01-0.02,0.02-0.05,0.03-0.07c0.03,0,0.07,0,0.1-0.01
			c0.02-0.03,0.04-0.07,0.06-0.1c0.08-0.05,0.12-0.09,0.13-0.12c0.06,0,0.11,0,0.17,0.01c0.02-0.03,0.04-0.06,0.06-0.09
			c0.06-0.04,0.12-0.09,0.19-0.13c0.02-0.03,0.05-0.06,0.07-0.08c0.03-0.03,0.06-0.05,0.1-0.07c0.05-0.02,0.1-0.04,0.15-0.06
			c0.02-0.08,0.05-0.16,0.1-0.25c-0.01-0.03-0.01-0.05-0.02-0.08c0.05-0.02,0.1-0.04,0.15-0.06c-0.01-0.01-0.01-0.03-0.02-0.04
			c0.04-0.05,0.08-0.09,0.12-0.12c-0.02,0-0.03,0-0.05,0c0.03-0.03,0.04-0.06,0.04-0.08c0-0.02,0-0.04-0.01-0.07
			c-0.01-0.03-0.01-0.04-0.01-0.05c0-0.04,0.01-0.08,0.03-0.12c0.02-0.04,0.03-0.07,0.03-0.08C60.62,51.07,60.6,51.05,60.58,51.05z"
			/>
		<path class="st3" d="M67.86,48.89c-0.01,0.04-0.01,0.09-0.02,0.13c0.01,0.03,0.01,0.06,0.02,0.09c-0.03,0.15-0.05,0.31-0.08,0.46
			c-0.04,0.05-0.08,0.1-0.12,0.15c-0.01,0.07-0.02,0.14-0.03,0.21c-0.03,0.05-0.06,0.09-0.09,0.14c-0.04,0.12-0.09,0.25-0.13,0.37
			c-0.05,0.11-0.11,0.22-0.16,0.32c-0.09,0.15-0.18,0.3-0.26,0.45c-0.01,0.05-0.03,0.09-0.04,0.14c-0.05,0.09-0.1,0.18-0.14,0.27
			c-0.05,0.12-0.09,0.24-0.14,0.36c-0.09,0.19-0.19,0.38-0.28,0.56c-0.04,0.17-0.07,0.27-0.09,0.3c-0.09-0.02-0.17-0.05-0.23-0.07
			c-0.06-0.14-0.12-0.27-0.18-0.41c-0.07-0.1-0.14-0.19-0.21-0.29c0-0.03,0-0.06-0.01-0.09c-0.06-0.11-0.11-0.21-0.16-0.32
			c-0.02-0.02-0.05-0.04-0.07-0.07c-0.13-0.23-0.26-0.45-0.39-0.68c-0.11-0.17-0.21-0.33-0.32-0.5c-0.01-0.01-0.04-0.02-0.07-0.01
			c-0.03,0-0.06,0.01-0.09,0.02c-0.06,0.1-0.12,0.2-0.18,0.3c-0.06,0.05-0.11,0.09-0.17,0.14c-0.08,0.11-0.15,0.22-0.23,0.33
			c-0.06,0.07-0.12,0.13-0.17,0.2c-0.03,0.09-0.06,0.17-0.08,0.26c-0.08,0.1-0.16,0.19-0.23,0.29c-0.01,0.04-0.02,0.07-0.02,0.11
			c-0.1,0.2-0.16,0.31-0.16,0.33c0,0.04,0,0.08,0,0.12c-0.03,0.04-0.05,0.08-0.08,0.12c-0.04,0.09-0.07,0.18-0.11,0.27
			c0.01,0.01,0.01,0.02,0.02,0.03c-0.01-0.01-0.03-0.01-0.06-0.01c-0.03,0-0.08,0.02-0.15,0.05c-0.02-0.02-0.06-0.04-0.11-0.06
			c0-0.01,0-0.03,0-0.04c-0.03-0.03-0.06-0.07-0.09-0.1c-0.02-0.08-0.04-0.16-0.06-0.24c-0.03-0.05-0.06-0.1-0.09-0.15
			c0-0.04,0-0.08,0-0.12c0-0.02-0.01-0.04-0.01-0.06c-0.05-0.14-0.1-0.27-0.15-0.41c-0.02-0.1-0.04-0.2-0.06-0.31
			c-0.02-0.02-0.05-0.05-0.07-0.07c0-0.03,0.01-0.06,0.01-0.09c-0.03-0.08-0.07-0.17-0.1-0.25c0-0.03,0-0.06,0-0.09
			c-0.04-0.09-0.07-0.18-0.11-0.26c-0.04-0.05-0.08-0.11-0.12-0.16c0.01-0.06,0.01-0.12,0.02-0.18c-0.01-0.03-0.01-0.06-0.02-0.09
			c-0.04-0.09-0.07-0.18-0.11-0.26c-0.01-0.04-0.01-0.08-0.02-0.11c-0.01-0.04-0.03-0.09-0.08-0.16c-0.05-0.07-0.07-0.13-0.07-0.17
			c0-0.03,0-0.05,0.01-0.07c-0.02-0.01-0.05-0.02-0.07-0.03c-0.04-0.1-0.09-0.19-0.13-0.29c0.04-0.01,0.09-0.02,0.13-0.04
			c0.01-0.05,0.02-0.08,0.04-0.08c0.05-0.01,0.09-0.02,0.14-0.03c0.02,0.03,0.04,0.06,0.06,0.08c0.03,0,0.07,0,0.1,0
			c0.01,0.05,0.03,0.1,0.04,0.15c0.02,0.01,0.03,0.02,0.05,0.04c-0.01,0.03-0.01,0.06-0.02,0.1c0.01,0.03,0.02,0.06,0.03,0.09
			c-0.01,0.03-0.02,0.06-0.03,0.1c0.04,0.06,0.08,0.12,0.12,0.18c-0.01,0.04-0.01,0.09-0.02,0.13c0.04,0.14,0.09,0.29,0.13,0.43
			c-0.01,0.04-0.01,0.07-0.02,0.11c0.02,0.1,0.04,0.2,0.06,0.3c0.05,0.1,0.09,0.2,0.14,0.31c0.03,0.14,0.05,0.27,0.08,0.41
			c0.03,0.03,0.07,0.07,0.1,0.1c0,0.06,0,0.13,0,0.19c0.06,0.18,0.09,0.3,0.1,0.37c0.04,0.03,0.07,0.05,0.11,0.08
			c0.01,0.04,0.03,0.08,0.04,0.12c0.03,0,0.06,0,0.09,0c0.16-0.26,0.33-0.51,0.48-0.77c0.05,0,0.08-0.06,0.08-0.16
			c0.08-0.05,0.12-0.09,0.12-0.14c0-0.06,0.02-0.12,0.06-0.19c0.04-0.04,0.06-0.08,0.06-0.12c0.06,0.03,0.11,0.04,0.15,0.04
			c-0.02-0.04-0.03-0.07-0.03-0.11c0-0.05,0.02-0.07,0.08-0.07c0.01,0,0.02,0,0.03,0.01c0.01,0,0.01,0,0.02-0.01
			c0-0.01,0-0.01-0.01-0.02c-0.01-0.01-0.01-0.01-0.01-0.02c0-0.02,0.02-0.04,0.06-0.07c-0.01-0.03-0.02-0.05-0.02-0.08
			c0-0.01,0-0.03,0-0.04c0.01-0.03,0.02-0.04,0.04-0.04c0.02,0,0.03,0.01,0.03,0.04c0.04-0.03,0.08-0.05,0.1-0.05
			c0.02,0,0.03,0,0.04,0.01c-0.01-0.04-0.02-0.08-0.03-0.12c0.02-0.03,0.04-0.06,0.07-0.09c-0.01-0.04-0.02-0.08-0.04-0.12
			c0.02,0,0.04,0.01,0.06,0.01c0.01-0.02,0.01-0.04,0.02-0.07c0.03-0.01,0.06-0.03,0.09-0.04c-0.01-0.01-0.03-0.03-0.04-0.04
			c0.01-0.01,0.03-0.02,0.04-0.04c0-0.01,0.01-0.03,0.01-0.04c0.04,0,0.08,0,0.12-0.01c-0.09-0.08-0.14-0.17-0.15-0.26
			c0-0.05,0.01-0.12,0.05-0.19c0.05-0.01,0.11-0.02,0.16-0.03c0.06,0.05,0.13,0.11,0.19,0.19c0.02,0.06,0.03,0.13,0.05,0.19
			c0,0.02,0.04,0.07,0.1,0.15c-0.01,0.03-0.01,0.07-0.02,0.1c0.03,0.07,0.06,0.14,0.09,0.21c0,0.04,0,0.08,0.01,0.11
			c0.07,0.09,0.13,0.19,0.2,0.28c0,0.03,0,0.05,0,0.08c0.02,0.02,0.05,0.04,0.07,0.05c0.06,0.13,0.13,0.25,0.19,0.38
			c0.01,0.05,0.02,0.1,0.03,0.16c0.04,0.04,0.08,0.09,0.12,0.13c0.12,0.21,0.24,0.41,0.36,0.62c0.06,0.01,0.13,0.01,0.19,0.02
			c0.1-0.21,0.2-0.42,0.29-0.63c0.04-0.03,0.08-0.07,0.12-0.1c0.02-0.07,0.04-0.13,0.06-0.2c0.04-0.02,0.09-0.05,0.13-0.07
			c0-0.05-0.01-0.1-0.01-0.15c0.14-0.09,0.21-0.18,0.2-0.26c0-0.05-0.01-0.1-0.01-0.14c0.02,0,0.03,0,0.05-0.01
			c0-0.01,0-0.03,0-0.04c0.03-0.02,0.05-0.04,0.08-0.06c0.05-0.11,0.1-0.21,0.15-0.32c0-0.08,0.05-0.18,0.13-0.3
			c-0.01-0.03-0.02-0.06-0.03-0.09c0.04-0.06,0.09-0.13,0.13-0.19c0.03-0.1,0.06-0.2,0.09-0.3c-0.1-0.22-0.16-0.38-0.17-0.5
			c-0.01-0.09,0.02-0.14,0.07-0.17c0.03,0.01,0.07,0.02,0.1,0.03c0.01,0.03,0.05,0.04,0.14,0.04c0.01,0.03,0.02,0.06,0.03,0.09
			C67.77,48.83,67.81,48.86,67.86,48.89z"/>
		<path class="st3" d="M76.52,50.71c0.05-0.02,0.1-0.03,0.17-0.05c0.07-0.02,0.12-0.01,0.13,0.04c0.01,0.04-0.02,0.09-0.08,0.16
			c-0.02,0.02-0.05,0.04-0.07,0.05c-0.01,0.02-0.03,0.04-0.04,0.06c-0.01,0.02-0.06,0.06-0.16,0.14c-0.05,0.03-0.11,0.06-0.16,0.08
			c-0.03,0.04-0.14,0.09-0.33,0.13c-0.02,0-0.07,0-0.16,0c-0.09,0-0.15-0.01-0.18-0.02c-0.13-0.06-0.27-0.12-0.4-0.18
			c-0.05-0.08-0.09-0.17-0.14-0.25c-0.04-0.02-0.08-0.04-0.12-0.06c0-0.01-0.01-0.03-0.01-0.04c-0.02-0.09-0.06-0.16-0.12-0.21
			c-0.01-0.07-0.02-0.14-0.04-0.21c0-0.11,0-0.17,0-0.19c-0.01-0.07-0.05-0.13-0.1-0.18c-0.02-0.13-0.04-0.27-0.06-0.4
			c-0.03,0.03-0.07,0.05-0.1,0.08c-0.02,0.04-0.03,0.07-0.05,0.11c-0.03,0.03-0.06,0.05-0.08,0.08c-0.03,0.02-0.06,0.07-0.08,0.12
			c-0.03,0.01-0.06,0.02-0.09,0.03c-0.07,0.07-0.09,0.14-0.08,0.2c-0.09,0.06-0.15,0.12-0.16,0.19c-0.01,0.07-0.05,0.15-0.12,0.23
			c-0.06,0.09-0.12,0.14-0.15,0.16c-0.04,0.02-0.07,0.04-0.09,0.07c-0.08,0.12-0.16,0.25-0.24,0.37c-0.01,0-0.02,0-0.03,0.01
			c-0.07,0.1-0.13,0.2-0.2,0.29c-0.06,0.04-0.12,0.08-0.18,0.13c-0.02,0.04-0.04,0.09-0.07,0.13c-0.12,0.06-0.25,0.13-0.41,0.23
			c-0.06-0.02-0.12-0.04-0.18-0.06c-0.02,0.01-0.04,0.02-0.07,0.02c-0.04,0.01-0.06-0.01-0.07-0.04c0-0.02,0-0.04,0-0.05
			c-0.04-0.01-0.08-0.02-0.12-0.03c0-0.03,0-0.06,0.02-0.1c-0.05-0.03-0.11-0.06-0.16-0.09c0.02-0.04,0.05-0.07,0.07-0.11
			c-0.04,0.01-0.08,0.01-0.11,0.02c-0.04-0.05-0.07-0.1-0.11-0.16c0.02-0.02,0.05-0.04,0.07-0.06c-0.04-0.03-0.08-0.07-0.12-0.1
			c-0.02-0.14-0.02-0.22,0-0.24c-0.01-0.05-0.01-0.1-0.02-0.15c-0.01-0.05,0-0.12,0.03-0.19c-0.03-0.01-0.06-0.03-0.1-0.04
			c0.05-0.08,0.07-0.14,0.06-0.18c-0.01-0.03-0.03-0.08-0.07-0.13c0.04-0.02,0.05-0.07,0.04-0.15c0-0.03-0.01-0.07-0.03-0.12
			c-0.03-0.1-0.06-0.19-0.09-0.29c0.01-0.21,0.01-0.43,0.02-0.64c-0.02-0.11-0.06-0.22-0.11-0.33c-0.02-0.05-0.04-0.1-0.06-0.15
			c-0.02-0.09,0.03-0.15,0.15-0.17c0.05,0,0.1,0.01,0.15,0.01c0.03,0.02,0.06,0.04,0.09,0.07c0,0.06-0.01,0.13-0.01,0.19
			c0.02,0.15,0.04,0.3,0.06,0.45c0.02,0.09,0.05,0.19,0.07,0.28c-0.02,0.05-0.03,0.1-0.05,0.15c0.02,0.03,0.04,0.05,0.05,0.08
			c-0.01,0.05-0.01,0.09-0.02,0.14c0.01,0.04,0.01,0.08,0.02,0.12c-0.03,0.01-0.03,0.03-0.02,0.06c0.02,0.03,0.02,0.05,0.03,0.06
			c0.01,0.03,0,0.07-0.02,0.11c0.03,0.02,0.06,0.04,0.08,0.07c-0.03,0.04-0.06,0.08-0.08,0.13c0.02,0.02,0.05,0.05,0.07,0.07
			c0,0.04-0.01,0.08-0.01,0.12c0.02,0.05,0.04,0.09,0.05,0.14c0.01,0.06,0.02,0.11,0.03,0.17c0.02,0.02,0.05,0.03,0.07,0.05
			c-0.01,0.07-0.01,0.15-0.02,0.22c0.01,0.03,0.03,0.08,0.08,0.12c0,0.03-0.01,0.07-0.02,0.1c0.02,0.04,0.05,0.08,0.07,0.12
			c0.06,0.02,0.15,0.06,0.25,0.13c0.08-0.02,0.14-0.06,0.19-0.12c0.05-0.06,0.11-0.12,0.19-0.19c0-0.01-0.02-0.01-0.04,0
			c0.11-0.06,0.15-0.12,0.14-0.17c0.08-0.02,0.13-0.05,0.16-0.07c0-0.04,0-0.08,0-0.11c0.03-0.02,0.06-0.04,0.1-0.05
			c0.06-0.1,0.17-0.18,0.32-0.24c0-0.03,0-0.06-0.01-0.09c0.05-0.06,0.11-0.11,0.16-0.17c-0.01-0.12,0.06-0.19,0.18-0.22
			c0.01-0.04,0.01-0.08,0.02-0.12c0.03-0.02,0.06-0.04,0.08-0.05c0.03-0.07,0.07-0.13,0.1-0.2c0.02,0,0.04-0.01,0.06-0.01
			c0-0.02-0.01-0.03-0.01-0.05c0.03-0.02,0.06-0.04,0.09-0.06c0.01-0.05,0.02-0.09,0.03-0.14c0.08-0.06,0.15-0.11,0.22-0.15
			c0.01-0.03,0.01-0.07,0.02-0.1c0.02-0.01,0.05-0.03,0.07-0.04c0-0.02-0.01-0.04-0.01-0.06c0.01-0.01,0.03-0.01,0.04-0.02
			c-0.01-0.14,0.03-0.23,0.13-0.25c-0.01-0.01-0.02-0.01-0.04-0.02c0.03-0.18,0.05-0.35,0.08-0.53c0.01,0,0.03-0.01,0.04-0.01
			c-0.01-0.04-0.02-0.08-0.03-0.12c0,0,0.01,0,0.01,0c0.02-0.01,0.06-0.12,0.1-0.36c0.06-0.02,0.11-0.04,0.17-0.06
			c0,0.01-0.01,0.03-0.01,0.04c0.05,0.05,0.09,0.1,0.14,0.14c0,0.11,0,0.23-0.01,0.34c-0.03,0.08-0.07,0.15-0.1,0.23
			c-0.01,0.12-0.02,0.23-0.03,0.35c-0.04,0.04-0.07,0.07-0.11,0.11c0.01,0.06,0.03,0.13,0.04,0.19c-0.02,0.05-0.03,0.09-0.05,0.14
			c0.02,0.05,0.03,0.09,0.05,0.14c-0.02,0.03-0.04,0.05-0.06,0.08c0.04,0.13,0.07,0.25,0.11,0.38c0.02,0.16,0.04,0.32,0.07,0.48
			c0.01,0.01,0.03,0.03,0.04,0.04c0,0.02,0,0.05,0.01,0.07c0.01,0,0.02,0,0.03-0.01c0.01,0.04,0.02,0.09,0.03,0.13
			c0.14,0.11,0.22,0.19,0.23,0.22c0.05,0,0.1,0,0.16,0c0.02,0.02,0.03,0.05,0.05,0.07c0.1,0.01,0.2,0.02,0.27,0.04
			c0.05-0.01,0.09-0.03,0.14-0.04c0.04,0,0.08,0,0.12,0c0.05-0.03,0.1-0.06,0.15-0.09C76.38,50.85,76.45,50.79,76.52,50.71z"/>
		<path class="st3" d="M81.02,49.14c-0.02,0.03-0.03,0.06-0.05,0.09c-0.01,0.02-0.03,0.13-0.05,0.3c-0.04,0.04-0.08,0.09-0.12,0.13
			c0.01,0.02,0.02,0.03,0.03,0.05c-0.05,0.01-0.09,0.03-0.14,0.04c-0.03,0.05-0.06,0.11-0.09,0.16c-0.06,0.02-0.12,0.04-0.18,0.06
			c-0.03,0.03-0.07,0.06-0.1,0.09c-0.03,0.01-0.07,0.04-0.1,0.09c-0.05,0-0.1,0-0.15,0.02c-0.04,0.01-0.08,0.03-0.12,0.07
			c0.01,0.02,0.01,0.03,0.02,0.05c-0.06,0.01-0.13,0.03-0.19,0.04c-0.05,0.02-0.1,0.04-0.14,0.06c-0.05,0.01-0.1,0.02-0.14,0.02
			c0,0.01-0.01,0.02-0.01,0.03c-0.02,0-0.04-0.01-0.06-0.01c-0.03,0.02-0.06,0.04-0.09,0.05c-0.02,0.01-0.04,0.01-0.07,0.02
			c-0.05,0.01-0.1,0.04-0.15,0.07c-0.04,0-0.08,0-0.12,0c-0.02,0.02-0.05,0.05-0.07,0.07c-0.02-0.01-0.03-0.02-0.05-0.03
			c-0.02,0.02-0.04,0.04-0.07,0.06c-0.1-0.02-0.18-0.02-0.24,0c-0.02,0.01-0.05,0.02-0.08,0.05c-0.05-0.01-0.11,0-0.19,0.01
			c-0.08,0.01-0.16,0.03-0.24,0.04c-0.07,0.02-0.13,0.04-0.17,0.06c-0.01-0.01-0.02-0.02-0.03-0.03c-0.03,0.03-0.05,0.05-0.08,0.08
			c-0.03-0.02-0.05-0.02-0.09-0.01c-0.01-0.01-0.03-0.03-0.04-0.04c-0.22,0.05-0.36-0.05-0.42-0.3c0.07-0.03,0.14-0.05,0.21-0.08
			c-0.01-0.02-0.02-0.04-0.03-0.06c0.01-0.02,0.02-0.05,0.04-0.07c0.01,0.01,0.03,0.03,0.04,0.04c0.02-0.01,0.04-0.01,0.06-0.02
			c0,0.01,0.01,0.03,0.01,0.04c0.03-0.02,0.06-0.05,0.09-0.07c0.06-0.01,0.09,0.01,0.1,0.04c0,0.02,0,0.05-0.01,0.09
			c0.03-0.01,0.06-0.01,0.09-0.02c0.01,0.04,0.02,0.09,0.03,0.13c0.09-0.01,0.18-0.03,0.27-0.04c0.04,0.02,0.08,0.03,0.12,0.05
			c0.01-0.02,0.01-0.03,0.02-0.05c0.44-0.15,0.88-0.3,1.32-0.45c0.15-0.07,0.29-0.14,0.44-0.21c0-0.02,0.01-0.03,0.01-0.05
			c0.04-0.02,0.07-0.03,0.11-0.05c0.01-0.01,0.01-0.03,0.02-0.04c0.15-0.07,0.27-0.17,0.37-0.27c0.01,0.01,0.03,0.01,0.04,0.01
			c0-0.02,0-0.04,0-0.06c0.02-0.02,0.04-0.05,0.06-0.07c0-0.01,0-0.02,0-0.03c-0.02-0.01-0.05-0.03-0.07-0.04c0-0.03,0-0.05,0-0.08
			c-0.05-0.01-0.09-0.03-0.14-0.04c-0.01-0.02-0.03-0.04-0.04-0.06c-0.06,0-0.1-0.01-0.12-0.02c-0.01,0.01-0.03,0.02-0.04,0.03
			c-0.04-0.02-0.08-0.03-0.13-0.05c-0.01,0-0.03,0.01-0.04,0.01c-0.02-0.01-0.04-0.02-0.06-0.04c-0.03,0.01-0.07,0.02-0.1,0.03
			C79.89,49,79.84,48.99,79.79,49c-0.02,0.01-0.04,0.02-0.07,0.03c-0.11,0.03-0.22,0.04-0.33,0c-0.04,0.01-0.07,0.02-0.11,0.03
			c-0.05-0.01-0.1-0.02-0.15-0.03c-0.02,0.02-0.04,0.04-0.06,0.05c-0.01-0.01-0.03-0.02-0.04-0.03c-0.02,0.01-0.05,0.01-0.07,0.02
			c-0.05-0.02-0.09-0.03-0.14-0.05c-0.11-0.01-0.22-0.01-0.34-0.02c-0.05-0.02-0.09-0.04-0.14-0.06c-0.12,0.02-0.24,0.03-0.36,0.05
			c-0.01-0.01-0.01-0.02-0.02-0.02c-0.11-0.03-0.22-0.06-0.34-0.09c-0.07-0.08-0.14-0.16-0.2-0.24c-0.05-0.04-0.09-0.07-0.14-0.11
			c-0.05-0.13-0.09-0.26-0.14-0.4c0.01-0.02,0.01-0.03,0.02-0.05c-0.03-0.11-0.02-0.22,0.02-0.32c0.11-0.1,0.15-0.17,0.14-0.23
			c0.02,0,0.05-0.01,0.07-0.01c0.01-0.08,0.05-0.16,0.13-0.26c0.03-0.04,0.06-0.08,0.09-0.13c0.17-0.13,0.34-0.25,0.51-0.38
			c0.09-0.04,0.18-0.09,0.27-0.13c0.09-0.05,0.17-0.11,0.26-0.16c0.15-0.04,0.3-0.07,0.45-0.11c0.01,0.01,0.02,0.03,0.04,0.04
			c0.01,0,0.02-0.01,0.03-0.01c0.05-0.02,0.1-0.02,0.14,0c0.01,0.03,0.02,0.05,0.02,0.08c0.05,0.01,0.1,0.02,0.14,0.04
			c0.01,0.15,0.01,0.23,0.02,0.24c0.02,0.05,0,0.08-0.06,0.1c-0.03,0.01-0.09-0.04-0.2-0.14c-0.09,0.02-0.18,0.04-0.27,0.07
			c-0.02,0.01-0.04,0.02-0.06,0.04c-0.12-0.04-0.19-0.05-0.21-0.05c-0.02,0.01-0.03,0.02-0.02,0.03c-0.02,0.03-0.05,0.06-0.07,0.09
			c-0.11,0.03-0.19,0.08-0.24,0.15c-0.12,0.06-0.19,0.12-0.23,0.18c-0.04,0.01-0.07,0.02-0.11,0.03c-0.02,0.03-0.04,0.05-0.07,0.08
			c-0.02,0.02-0.08,0.06-0.18,0.11c-0.01,0.02-0.02,0.04-0.03,0.05c-0.02,0.01-0.03,0.03-0.05,0.04c-0.03,0.05-0.07,0.1-0.1,0.15
			c-0.02,0.05-0.04,0.1-0.06,0.15c-0.08,0.08-0.12,0.13-0.12,0.15c0,0.13,0,0.26-0.01,0.38c0.02,0,0.04,0.01,0.06,0.01
			c0,0.01,0,0.02,0.01,0.03c0.03,0.1,0.1,0.16,0.23,0.2c0,0.01,0.01,0.03,0.01,0.04c0.1,0.02,0.21,0.04,0.31,0.06
			c0.02-0.01,0.04-0.01,0.06-0.02c0.06,0.03,0.12,0.06,0.18,0.08c0.07-0.02,0.14-0.04,0.2-0.06c0.05,0.02,0.1,0.04,0.15,0.05
			c0.08-0.01,0.16-0.03,0.24-0.04c0.03,0.01,0.06,0.02,0.08,0.03c0.16-0.01,0.31-0.01,0.47-0.02c0.01,0.03,0.04,0.04,0.09,0.03
			c0.08-0.03,0.16-0.03,0.24-0.02c0.08,0.01,0.15,0.01,0.22,0c0.01,0.01,0.02,0.03,0.02,0.04c0.03,0,0.07,0.01,0.1,0.01
			c0.06-0.02,0.13-0.04,0.19-0.06c0.07,0.01,0.14,0.03,0.21,0.04c0.04,0.05,0.1,0.09,0.18,0.11c0,0.01,0,0.02,0,0.03
			c0.02,0.01,0.05,0.03,0.07,0.04c0.03,0,0.06-0.01,0.1-0.01c-0.01,0.03-0.01,0.05-0.02,0.08C80.94,49.06,80.99,49.1,81.02,49.14z"
			/>
	</g>
</g>
</svg>
