<?xml version="1.0" encoding="utf-8"?>
<!-- Generator: Adobe Illustrator 26.0.1, SVG Export Plug-In . SVG Version: 6.00 Build 0)  -->
<svg version="1.1" id="Layer_1" xmlns="http://www.w3.org/2000/svg" xmlns:xlink="http://www.w3.org/1999/xlink" x="0px" y="0px"
	 viewBox="0 0 297.25 64" style="enable-background:new 0 0 297.25 64;" xml:space="preserve">
<style type="text/css">
	.st0{fill:#D7A5CC;stroke:#E66FAA;stroke-linecap:round;stroke-miterlimit:10;}
	.st1{fill:#E76FAA;}
	.st2{fill:none;stroke:#E66FAA;stroke-linecap:round;stroke-miterlimit:10;}
	.st3{fill:#E66FAA;}
</style>
<g>
	<g>
		<path class="st0" d="M50.58,33.15c0-4.45,4.19-12.14,8.85-12.14c1.64,0,2.7,0.9,2.7,2.38c0,2.44-3.23,5.41-9.75,6.78
			c-0.32,1.11-0.48,2.07-0.48,3.07c0,1.8,0.79,3.02,2.6,3.02c2.49,0,6.68-2.28,11.39-7.68c0.11-0.16,0.32-0.21,0.53-0.21
			c0.42,0,0.58,0.42,0.58,0.69c0,0.16-0.05,0.32-0.16,0.42c-4.45,5.14-8.96,8.11-12.24,8.11C51.69,37.6,50.58,35.48,50.58,33.15z
			 M52.96,28.7c5.51-1.38,7.84-3.87,7.84-5.35c0-0.79-0.9-1.01-1.38-1.01C56.67,22.34,54.02,26.37,52.96,28.7z"/>
		<path class="st0" d="M79.67,36.76c0-0.79,1.59-3.6,2.17-4.56c0.85-2.49,1.7-5.51,1.7-7.63c0-0.95-0.11-2.23-1.11-2.23
			c-3.5,0-9.38,10.39-11.34,14.41c-0.11,0.26-0.48,0.58-0.74,0.58c-0.42,0-0.64-0.37-0.64-0.64c0-0.69,0.64-1.54,0.9-2.01
			c1.7-3.23,4.08-7.84,4.08-10.65c0-0.74-0.16-1.59-0.95-1.59c-0.42,0-0.9,0.26-1.32,0.69c-1.54,1.43-5.25,6.04-5.56,6.36
			c-0.16,0.16-0.27,0.27-0.48,0.27c-0.37,0-0.69-0.32-0.69-0.64c0-0.27,0.11-0.42,0.21-0.53c0.42-0.58,4.03-4.93,5.62-6.41
			c0.69-0.64,1.54-1.01,2.28-1.01c1.59,0,2.23,1.48,2.23,2.81c0,0.9-0.27,1.8-0.42,2.6c2.23-3.02,4.72-5.56,6.84-5.56
			c1.91,0,2.44,2.01,2.44,3.5c0,1.17-0.21,2.54-0.53,3.92c2.7-3.71,6.2-7.37,9.27-7.37c1.48,0,2.28,0.95,2.28,2.28
			c0,1.7-1.06,4.03-2.12,6.57c-0.85,2.01-1.86,4.4-1.86,5.56c0,0.42,0.11,0.64,0.48,0.64c1.27,0,4.24-2.54,8.64-7.53
			c0.16-0.16,0.32-0.26,0.53-0.26c0.42,0,0.64,0.26,0.64,0.64c0,0.16-0.11,0.42-0.21,0.53c-4.98,5.67-7.84,7.95-9.59,7.95
			c-1.22,0-1.8-0.85-1.8-1.96c0-1.48,0.9-3.66,1.96-6.09c0.9-2.01,2.01-4.66,2.01-6.04c0-0.69-0.37-0.95-0.95-0.95
			c-3.29,0-7.84,5.88-10.49,10.17c-0.85,2.49-1.8,4.45-2.23,4.77c-0.16,0.11-0.32,0.16-0.48,0.16
			C79.94,37.5,79.67,37.13,79.67,36.76z"/>
		<path class="st0" d="M99.97,33.15c0-4.45,4.19-12.14,8.85-12.14c1.64,0,2.7,0.9,2.7,2.38c0,2.44-3.23,5.41-9.75,6.78
			c-0.32,1.11-0.48,2.07-0.48,3.07c0,1.8,0.79,3.02,2.6,3.02c2.49,0,6.68-2.28,11.39-7.68c0.11-0.16,0.32-0.21,0.53-0.21
			c0.42,0,0.58,0.42,0.58,0.69c0,0.16-0.05,0.32-0.16,0.42c-4.45,5.14-8.96,8.11-12.24,8.11C101.09,37.6,99.97,35.48,99.97,33.15z
			 M102.36,28.7c5.51-1.38,7.84-3.87,7.84-5.35c0-0.79-0.9-1.01-1.38-1.01C106.07,22.34,103.42,26.37,102.36,28.7z"/>
		<path class="st0" d="M119,36.6c0-0.21,0.05-0.37,0.26-0.79c2.07-3.87,5.04-10.33,5.04-12.61c0-0.48-0.11-0.9-0.58-0.9
			c-0.32,0-0.74,0.16-1.33,0.58c-1.17,0.85-4.29,4.5-6.15,6.62c-0.11,0.16-0.32,0.21-0.48,0.21c-0.37,0-0.69-0.32-0.69-0.64
			c0-0.16,0.11-0.37,0.21-0.48c1.8-2.12,5.04-5.83,6.31-6.78c0.74-0.53,1.48-0.85,2.12-0.85c1.27,0,1.96,1.22,1.96,2.28
			c0,0.95-0.74,3.23-1.27,4.61c2.86-3.87,6.04-6.78,9.27-6.78c1.27,0,2.23,0.69,2.23,1.91c0,2.01-1.54,5.35-2.28,6.78
			c-1.01,1.91-2.12,4.45-2.12,5.67c0,0.48,0.21,0.69,0.64,0.69c1.85,0,5.56-4.03,8.69-7.53c0.11-0.11,0.32-0.21,0.48-0.21
			c0.42,0,0.64,0.32,0.64,0.69c0,0.16-0.05,0.32-0.16,0.42c-3.07,3.45-7.1,7.95-9.7,7.95c-1.33,0-1.91-1.01-1.91-1.91
			c0-1.54,1.06-3.82,2.23-6.31c0.95-2.01,2.17-4.66,2.17-5.99c0-0.74-0.32-0.85-0.9-0.85c-2.49,0-5.14,2.44-7.47,5.35
			c-2.6,3.29-4.88,7.58-5.78,9.06c-0.26,0.42-0.58,0.48-0.74,0.48C119.21,37.29,119,37.02,119,36.6z"/>
		<path class="st0" d="M140.57,29.07c0-0.16,0.05-0.32,0.21-0.48c2.07-2.17,3.29-3.97,4.45-5.99h-2.6c-0.37,0-0.69-0.32-0.69-0.69
			c0-0.37,0.32-0.64,0.69-0.64h3.29c0.48-0.9,0.9-1.91,1.38-2.91c1.75-4.45,2.38-5.88,2.38-5.88c0.11-0.26,0.37-0.42,0.64-0.42
			c0.37,0,0.64,0.32,0.64,0.64c0,0.11-0.05,0.37-0.11,0.48c-1.01,2.54-1.96,4.82-3.07,7.47l-0.26,0.64h5.41
			c0.37,0,0.69,0.27,0.69,0.64c0,0.37-0.32,0.69-0.69,0.69h-5.94c-1.22,3.13-3.02,8.11-3.02,11.08c0,1.01,0.32,2.49,1.43,2.49
			c1.59,0,5.51-4.19,8.53-7.58c0.16-0.16,0.32-0.21,0.48-0.21c0.37,0,0.69,0.32,0.69,0.64c0,0.16-0.11,0.37-0.21,0.48
			c-1.75,2.07-6.78,8-9.49,8c-1.91,0-2.7-1.91-2.7-3.76c0-1.7,0.48-4.03,1.43-7.05c-0.74,0.95-1.38,1.75-2.38,2.81
			c-0.16,0.16-0.32,0.21-0.48,0.21C140.84,29.71,140.57,29.39,140.57,29.07z"/>
		<path class="st0" d="M152.97,33.05c0-3.5,2.33-8.74,6.84-11.71c0.11-0.05,0.21-0.11,0.32-0.11c0.37,0,0.69,0.32,0.69,0.64
			c0,0.21-0.11,0.42-0.32,0.58c-3.92,2.6-6.2,7.42-6.2,10.6c0,1.64,0.74,3.13,2.33,3.13c2.12,0,3.92-1.7,5.19-3.02
			c-1.27-0.95-1.91-2.54-1.91-4.66c0-2.6,1.64-7.68,4.66-7.68c1.91,0,2.33,2.38,2.33,3.76c0,3.02-1.43,5.83-3.02,8.11
			c0.26,0.05,0.53,0.11,0.79,0.11c1.7,0,3.66-1.33,6.15-4.19c0.16-0.16,0.37-0.21,0.53-0.21c0.42,0,0.58,0.37,0.58,0.69
			c0,0.16-0.05,0.32-0.16,0.42c-2.17,2.44-4.56,4.61-7.15,4.61c-0.53,0-1.06-0.11-1.64-0.32c-1.75,1.96-3.92,3.71-6.36,3.71
			C154.08,37.5,152.97,35.22,152.97,33.05z M161.24,28.49c0,1.01,0.16,2.76,1.38,3.6c1.7-2.28,2.97-4.82,2.97-7.47
			c0-0.74-0.11-2.49-1.01-2.49C162.62,22.13,161.24,26.37,161.24,28.49z"/>
		<path class="st0" d="M185.62,28.7c0-9.96,9.7-25.54,19.24-25.54c3.07,0,4.56,2.23,4.56,5.14c0,3.39-2.01,7.53-5.14,8.74
			c-0.05,0.05-0.11,0.05-0.21,0.05c-0.42,0-0.69-0.32-0.69-0.69c0-0.26,0.16-0.48,0.42-0.58c2.6-1.01,4.35-4.61,4.35-7.53
			c0-2.49-1.17-3.82-3.29-3.82c-8.64,0-17.91,14.89-17.91,24.17c0,5.25,2.33,8.27,7.84,8.27c6.04,0,9.96-4.19,13.62-8.32
			c0.11-0.11,0.32-0.21,0.48-0.21c0.37,0,0.69,0.32,0.69,0.64c0,0.16-0.11,0.37-0.21,0.48c-3.34,3.76-7.95,8.74-14.57,8.74
			C188.27,38.24,185.62,34.21,185.62,28.7z"/>
		<path class="st0" d="M207.45,33.05c0-3.5,2.33-8.74,6.84-11.71c0.11-0.05,0.21-0.11,0.32-0.11c0.37,0,0.69,0.32,0.69,0.64
			c0,0.21-0.11,0.42-0.32,0.58c-3.92,2.6-6.2,7.42-6.2,10.6c0,1.64,0.74,3.13,2.33,3.13c2.12,0,3.92-1.7,5.19-3.02
			c-1.27-0.95-1.91-2.54-1.91-4.66c0-2.6,1.64-7.68,4.66-7.68c1.91,0,2.33,2.38,2.33,3.76c0,3.02-1.43,5.83-3.02,8.11
			c0.26,0.05,0.53,0.11,0.79,0.11c1.7,0,3.66-1.33,6.15-4.19c0.16-0.16,0.37-0.21,0.53-0.21c0.42,0,0.58,0.37,0.58,0.69
			c0,0.16-0.05,0.32-0.16,0.42c-2.17,2.44-4.56,4.61-7.15,4.61c-0.53,0-1.06-0.11-1.64-0.32c-1.75,1.96-3.92,3.71-6.36,3.71
			C208.57,37.5,207.45,35.22,207.45,33.05z M215.72,28.49c0,1.01,0.16,2.76,1.38,3.6c1.7-2.28,2.97-4.82,2.97-7.47
			c0-0.74-0.11-2.49-1.01-2.49C217.1,22.13,215.72,26.37,215.72,28.49z"/>
		<path class="st0" d="M230.19,35.38c0-1.64,1.59-4.29,2.6-5.88c0,0,1.27-2.12,1.96-3.55c0.21-0.48,0.37-0.9,0.37-1.22
			c0-0.32-0.11-0.53-0.74-0.53h-1.11c-0.69,0-1.38-0.21-1.64-1.01c-1.43,1.8-3.29,3.97-5.35,6.31c-0.11,0.16-0.32,0.21-0.48,0.21
			c-0.42,0-0.64-0.32-0.64-0.64c0-0.16,0.05-0.32,0.16-0.48c2.07-2.33,3.92-4.56,5.35-6.31c0.74-0.95,1.27-1.54,1.7-2.07
			c0.11-0.16,0.37-0.32,0.58-0.32c0.48,0,0.69,0.32,0.69,0.58c0,0.21-0.11,0.48-0.26,0.74c-0.42,0.79-0.48,1.27-0.48,1.43
			c0,0.21,0.37,0.21,0.69,0.21h1.11c1.01,0,1.75,0.74,1.75,1.64c0,1.38-1.54,3.97-2.54,5.67c-1.06,1.8-2.38,3.97-2.38,5.19
			c0,0.53,0.42,0.85,0.85,0.85c0.21,0,0.48-0.05,0.69-0.21c2.7-1.96,5.51-5.46,7.47-7.42c0.11-0.11,0.32-0.21,0.48-0.21
			c0.32,0,0.69,0.32,0.69,0.64c0,0.16-0.11,0.37-0.21,0.48c-1.7,1.86-5.14,5.83-7.68,7.63c-0.42,0.26-0.95,0.42-1.43,0.42
			C231.09,37.55,230.19,36.54,230.19,35.38z"/>
		<path class="st0" d="M244.23,36.6c0-0.21,0.05-0.37,0.26-0.79c2.07-3.87,5.04-10.33,5.04-12.61c0-0.48-0.11-0.9-0.58-0.9
			c-0.32,0-0.74,0.16-1.33,0.58c-1.17,0.85-4.29,4.5-6.15,6.62c-0.11,0.16-0.32,0.21-0.48,0.21c-0.37,0-0.69-0.32-0.69-0.64
			c0-0.16,0.11-0.37,0.21-0.48c1.8-2.12,5.04-5.83,6.31-6.78c0.74-0.53,1.48-0.85,2.12-0.85c1.27,0,1.96,1.22,1.96,2.28
			c0,0.95-0.74,3.23-1.27,4.61c2.86-3.87,6.04-6.78,9.27-6.78c1.27,0,2.23,0.69,2.23,1.91c0,2.01-1.54,5.35-2.28,6.78
			c-1.01,1.91-2.12,4.45-2.12,5.67c0,0.48,0.21,0.69,0.64,0.69c1.85,0,5.56-4.03,8.69-7.53c0.11-0.11,0.32-0.21,0.48-0.21
			c0.42,0,0.64,0.32,0.64,0.69c0,0.16-0.05,0.32-0.16,0.42c-3.07,3.45-7.1,7.95-9.7,7.95c-1.32,0-1.91-1.01-1.91-1.91
			c0-1.54,1.06-3.82,2.23-6.31c0.95-2.01,2.17-4.66,2.17-5.99c0-0.74-0.32-0.85-0.9-0.85c-2.49,0-5.14,2.44-7.47,5.35
			c-2.6,3.29-4.88,7.58-5.78,9.06c-0.26,0.42-0.58,0.48-0.74,0.48C244.45,37.29,244.23,37.02,244.23,36.6z"/>
		<path class="st0" d="M265.01,33.15c0-4.45,4.19-12.14,8.85-12.14c1.64,0,2.7,0.9,2.7,2.38c0,2.44-3.23,5.41-9.75,6.78
			c-0.32,1.11-0.48,2.07-0.48,3.07c0,1.8,0.79,3.02,2.6,3.02c2.49,0,6.68-2.28,11.39-7.68c0.11-0.16,0.32-0.21,0.53-0.21
			c0.42,0,0.58,0.42,0.58,0.69c0,0.16-0.05,0.32-0.16,0.42c-4.45,5.14-8.96,8.11-12.24,8.11C266.12,37.6,265.01,35.48,265.01,33.15z
			 M267.4,28.7c5.51-1.38,7.84-3.87,7.84-5.35c0-0.79-0.9-1.01-1.38-1.01C271.1,22.34,268.46,26.37,267.4,28.7z"/>
		<path class="st0" d="M285.25,35.38c0-1.64,1.59-4.29,2.6-5.88c0,0,1.27-2.12,1.96-3.55c0.21-0.48,0.37-0.9,0.37-1.22
			c0-0.32-0.11-0.53-0.74-0.53h-1.11c-0.69,0-1.38-0.21-1.64-1.01c-1.43,1.8-3.29,3.97-5.35,6.31c-0.11,0.16-0.32,0.21-0.48,0.21
			c-0.42,0-0.64-0.32-0.64-0.64c0-0.16,0.05-0.32,0.16-0.48c2.07-2.33,3.92-4.56,5.35-6.31c0.74-0.95,1.27-1.54,1.7-2.07
			c0.11-0.16,0.37-0.32,0.58-0.32c0.48,0,0.69,0.32,0.69,0.58c0,0.21-0.11,0.48-0.27,0.74c-0.42,0.79-0.48,1.27-0.48,1.43
			c0,0.21,0.37,0.21,0.69,0.21h1.11c1.01,0,1.75,0.74,1.75,1.64c0,1.38-1.54,3.97-2.54,5.67c-1.06,1.8-2.38,3.97-2.38,5.19
			c0,0.53,0.42,0.85,0.85,0.85c0.21,0,0.48-0.05,0.69-0.21c2.7-1.96,5.51-5.46,7.47-7.42c0.11-0.11,0.32-0.21,0.48-0.21
			c0.32,0,0.69,0.32,0.69,0.64c0,0.16-0.11,0.37-0.21,0.48c-1.7,1.86-5.14,5.83-7.68,7.63c-0.42,0.26-0.95,0.42-1.43,0.42
			C286.16,37.55,285.25,36.54,285.25,35.38z"/>
	</g>
</g>
<g id="XMLID_00000094600271165354849500000013108046714525562293_">
	<g>
		<path class="st1" d="M45.73,2.68c6.94,5.28,5.63,16.57,2.45,24.96c-2.19,5.8-4.93,11.35-8.15,16.57
			c4.21-8.87,9.51-21.65,2.68-30.64c-4.3-5.65-11.13-4.59-16.02-0.75c-0.27-1.47-0.74-2.87-1.47-4.17c0.78-1.14,1.66-2.22,2.63-3.21
			C32.55,0.62,40.43-1.37,45.73,2.68z"/>
		<path class="st1" d="M25.22,8.65c0.73,1.3,1.2,2.7,1.47,4.17c-1.11,0.87-2.11,1.88-2.97,2.99l-0.45-0.82
			c-0.29-0.4-0.6-0.79-0.94-1.15C23.13,12.01,24.09,10.26,25.22,8.65z"/>
		<path class="st1" d="M24.31,7.24c0.34,0.45,0.65,0.93,0.91,1.41c-1.13,1.61-2.09,3.36-2.89,5.19C17.71,8.74,9.3,7.25,4.32,13.15
			c-5.13,6.06-3.2,14.84,0.88,20.87C0.24,27.05-1.37,16.85,3.18,9.56C7.72,2.28,19.16,0.42,24.31,7.24z"/>
	</g>
	<g>
		<path class="st2" d="M24.33,63.5c3.91-3.67,7.52-7.71,10.76-12.05c1.76-2.33,3.4-4.75,4.94-7.24c3.22-5.22,5.96-10.77,8.15-16.57
			c3.18-8.39,4.49-19.68-2.45-24.96c-5.3-4.05-13.18-2.06-17.88,2.76C26.88,6.43,26,7.51,25.22,8.65c-1.13,1.61-2.09,3.36-2.89,5.19
			c-1.4,3.17-2.36,6.59-2.96,10.01c-0.51,2.88-0.25,6.19,2.16,6.14c1.42-0.03,2.34-1.56,2.93-2.92c1.92-4.4,3.08-9.64,2.23-14.25
			c-0.27-1.47-0.74-2.87-1.47-4.17c-0.26-0.48-0.57-0.96-0.91-1.41C19.16,0.42,7.72,2.28,3.18,9.56
			c-4.55,7.29-2.94,17.49,2.02,24.46v0.01C10.17,41,17.82,45.26,25.56,48.29c3.12,1.23,6.31,2.28,9.53,3.16
			c19.12,5.27,39.68,4.62,58.42-2.01"/>
		<path class="st2" d="M5.2,34.02c-4.08-6.03-6.01-14.81-0.88-20.87c4.98-5.9,13.39-4.41,18.01,0.69c0.34,0.36,0.65,0.75,0.94,1.15
			l0.45,0.82c0.86-1.11,1.86-2.12,2.97-2.99c4.89-3.84,11.72-4.9,16.02,0.75c6.83,8.99,1.53,21.77-2.68,30.64
			c-0.02,0.03-0.03,0.07-0.05,0.1"/>
	</g>
</g>
<path class="st2" d="M24.14,16.68l-0.49-0.21c-4.45,5.2-4.64,12.48-3.02,13.32C23.95,31.5,26.37,20.62,24.14,16.68z"/>
<g>
	<g>
		<path class="st3" d="M22.16,14.34c-0.09,1.14-0.71,2.13-1.17,3.15c-0.48,1.07-0.87,2.18-1.18,3.31c0.02-0.06,0.37-0.21,0.44-0.25
			c0.09-0.05,0.39-0.16,0.43-0.25c0.88-2.09,1.92-4.11,3.1-6.04c-0.29,0.17-0.58,0.33-0.87,0.5c0.17,1-0.29,1.89-0.82,2.7
			c-0.58,0.91-1.2,1.8-1.8,2.7c0.29-0.17,0.58-0.33,0.87-0.5c0.49-1.67,1.51-3.08,2.53-4.45c-0.29,0.17-0.58,0.33-0.87,0.5
			c-0.26,0.47-0.53,0.93-0.79,1.4c0.29-0.17,0.58-0.33,0.87-0.5c0.05-0.25,0.14-0.47,0.3-0.67c0.41-0.49-0.22,0.17-0.26,0.08
			c-0.01-0.02,0.39-0.07,0.43-0.07c0.54,0.01,1,0.34,1.23,0.81c0.29-0.17,0.58-0.33,0.87-0.5c-0.3-0.23-0.6-0.45-0.91-0.68
			c-0.03-0.02-0.87,0.46-0.87,0.5c0,0.39,0.18,0.67,0.53,0.84c0.06,0.03,0.87-0.5,0.87-0.5c-0.19-0.62-0.16-1.24,0.1-1.84
			c-0.29,0.17-0.58,0.33-0.87,0.5c0.31,0.31,0.51,0.67,0.62,1.1c-0.02-0.1,0.87-0.38,0.87-0.5c-0.03-0.44-0.05-0.87-0.08-1.31
			c-0.29,0.17-0.58,0.33-0.87,0.5c0.14,0.38,0.28,0.75,0.42,1.13c-0.03-0.07,0.87-0.4,0.87-0.5c-0.02-0.38-0.04-0.77-0.06-1.15
			c-0.01-0.26-0.09-0.57,0.16-0.74c-0.29,0.17-0.58,0.33-0.87,0.5c0.84-0.3,0.75,0.91,0.71,1.38c-0.07,0.89-0.15,1.78-0.25,2.67
			c-0.2,1.77-0.46,3.54-0.78,5.3c0.29-0.17,0.58-0.33,0.87-0.5c-0.48-2.55,0.05-5.25-0.93-7.71c-0.29,0.17-0.58,0.33-0.87,0.5
			c0.52,1.25,0.91,2.54,1.16,3.87c-0.02-0.11,0.87-0.36,0.87-0.5c-0.07-1.31-0.2-2.62-0.39-3.91c-0.29,0.17-0.58,0.33-0.87,0.5
			c0.22,0.72,0.44,1.45,0.65,2.17c-0.03-0.08,0.87-0.39,0.87-0.5c-0.07-0.88-0.18-1.76-0.33-2.63c-0.29,0.17-0.58,0.33-0.87,0.5
			c0.38,0.78,0.37,1.66,0.38,2.5c0.01,0.97-0.04,1.94-0.14,2.9c0.29-0.17,0.58-0.33,0.87-0.5c-0.18-1.05-0.36-2.1-0.53-3.16
			c-0.29,0.17-0.58,0.33-0.87,0.5c0.08,0.44,0.17,0.87,0.25,1.31c-0.02-0.11,0.87-0.37,0.87-0.5c-0.04-0.59-0.07-1.18-0.11-1.77
			c-0.29,0.17-0.58,0.33-0.87,0.5c0.04,0.36,0.11,0.71,0.21,1.06c-0.02-0.07,0.89-0.42,0.87-0.5c-0.1-0.35-0.17-0.7-0.21-1.06
			c0.02,0.13-0.88,0.35-0.87,0.5c0.04,0.59,0.07,1.18,0.11,1.77c0.29-0.17,0.58-0.33,0.87-0.5c-0.08-0.44-0.17-0.87-0.25-1.31
			c0.02,0.1-0.89,0.38-0.87,0.5c0.18,1.05,0.36,2.1,0.53,3.16c-0.02-0.12,0.85-0.35,0.87-0.5c0.1-0.96,0.15-1.93,0.14-2.9
			c-0.01-0.84,0-1.73-0.38-2.5c0.02,0.04-0.88,0.43-0.87,0.5c0.15,0.87,0.26,1.75,0.33,2.63c0.29-0.17,0.58-0.33,0.87-0.5
			c-0.22-0.72-0.44-1.45-0.65-2.17c0.02,0.08-0.88,0.4-0.87,0.5c0.19,1.3,0.32,2.6,0.39,3.91c0.29-0.17,0.58-0.33,0.87-0.5
			c-0.25-1.33-0.64-2.62-1.16-3.87c0.01,0.03-0.89,0.45-0.87,0.5c0.98,2.46,0.45,5.16,0.93,7.71c-0.02-0.12,0.84-0.35,0.87-0.5
			c0.46-2.49,0.79-5,1-7.52c0.04-0.47,0.24-1.24-0.07-1.65c-0.21-0.28-0.51-0.22-0.78-0.07c-0.23,0.13-0.68,0.29-0.82,0.53
			c-0.11,0.19-0.04,0.5-0.02,0.7c0.02,0.36,0.04,0.71,0.06,1.07c0.29-0.17,0.58-0.33,0.87-0.5c-0.14-0.38-0.28-0.75-0.42-1.13
			c0.03,0.07-0.87,0.4-0.87,0.5c0.03,0.44,0.05,0.87,0.08,1.31c0.29-0.17,0.58-0.33,0.87-0.5c-0.11-0.43-0.31-0.79-0.62-1.1
			c-0.01-0.01-0.84,0.43-0.87,0.5c-0.26,0.6-0.29,1.21-0.1,1.84c0.29-0.17,0.58-0.33,0.87-0.5c-0.35-0.17-0.53-0.45-0.53-0.84
			c-0.29,0.17-0.58,0.33-0.87,0.5c0.3,0.23,0.6,0.45,0.91,0.68c0.05,0.04,0.86-0.52,0.87-0.5c-0.37-0.75-1.22-1-1.94-0.61
			c-0.64,0.35-1.34,0.67-1.49,1.46c0.01-0.06,0.38-0.21,0.44-0.25c0.1-0.06,0.37-0.15,0.43-0.25c0.26-0.47,0.53-0.93,0.79-1.4
			c-0.05,0.09-0.34,0.19-0.44,0.25c-0.12,0.07-0.35,0.14-0.43,0.25c-1.02,1.38-2.04,2.79-2.53,4.45c0.02-0.07,0.37-0.21,0.44-0.25
			c0.11-0.06,0.36-0.14,0.43-0.25c0.6-0.9,1.21-1.79,1.8-2.7c0.52-0.81,0.99-1.71,0.82-2.7c0.02,0.09-0.8,0.39-0.87,0.5
			c-1.19,1.93-2.22,3.95-3.1,6.04c0.29-0.17,0.58-0.33,0.87-0.5c0.31-1.13,0.7-2.24,1.18-3.31c0.46-1.02,1.08-2.01,1.17-3.15
			c0,0.04-0.39,0.22-0.44,0.25C22.54,14.12,22.17,14.27,22.16,14.34L22.16,14.34z"/>
	</g>
</g>
</svg>
